<svg width="2560" height="1440" xml:space="preserve" xmlns="http://www.w3.org/2000/svg"><defs><clipPath clipPathUnits="userSpaceOnUse" id="m"><path style="fill:red;fill-opacity:1;fill-rule:nonzero;stroke:none" d="M1498.613 863.676v18.265c1.935.218 3.865.458 5.807.62 1.2.093 2.4.154 3.601.214 5.148.259 5.542 4.856 1.59 5.77.431.875.29 1.86-.383 2.621 2.176.907 2.659 2.763 1.737 4.066.078 1.58-1.505 3.14-4.615 2.903a88.212 88.212 0 0 1-4.352-.422c-1.13-.145-2.258-.31-3.385-.479v57.162c1.54-.21 3.085-.348 4.639-.34.258.002.516.009.775.018 5.862.223 5.86 6.187 0 5.926a20.586 20.586 0 0 0-1.978.01 21.892 21.892 0 0 0-.239 1.877 11.84 11.84 0 0 1 1.856.307c.78.187 1.153 2.116 1.328 2.795.194.997.324 2.005.424 3.015.372.74.647 1.553.824 2.363.068.614.213 1.225.203 1.842-.01.966-.251 2.078-.707 3.092 0 .27.01.54.012.809.01.715-.072 1.42-.162 2.123 1.888.304 3.734.825 5.56 1.39 5.605 1.734 3.84 7.414-1.759 5.66a40.518 40.518 0 0 0-3.635-.959c.93 1.665-.264 3.94-3.828 4.16a53.3 53.3 0 0 0-3.312.327v16.676h214.884V863.676z"/></clipPath><clipPath clipPathUnits="userSpaceOnUse" id="w"><path style="fill:red;fill-opacity:1;fill-rule:nonzero;stroke:none" d="M1113.11 829.848v120.328h28.224V942.4c0-2.933 1.481-4.4 2.963-4.4 1.116 0 2.232.833 2.715 2.498.274-.108.555-.18.84-.18.746 0 1.491.373 2.048 1.118.497-1.636 1.604-2.456 2.71-2.456.877 0 1.746.528 2.312 1.56.319-.14.66-.207 1.008-.188 1.395.072 2.87 1.429 3.224 4.156.01.046.015.09.022.137a61.455 61.455 0 0 1-.064-4.229c.067-2.932 1.585-4.398 3.067-4.398 1.482 0 2.929 1.466 2.86 4.398-.079 3.26.205 6.51.44 9.76h76.34V829.848z"/></clipPath><clipPath clipPathUnits="userSpaceOnUse" id="v"><path style="fill:red;fill-opacity:1;fill-rule:nonzero;stroke:none" d="M881.807 829.848v120.328h93.601c-.005-2.231.002-4.462 0-6.694-.002-2.933 1.476-4.4 2.957-4.4.22 0 .436.041.65.106.132-2.467 1.52-3.719 2.924-3.653 1.223.057 2.403 1.174 2.819 3.287.009-.87.033-1.741.088-2.611.173-2.744 1.559-4.109 2.947-4.182 1.137-.06 2.265.76 2.738 2.387.44-.517 1.027-.805 1.666-.799 1.1.011 2.347.877 3.242 2.887 1.726 3.873 2.393 8.123 3.069 12.28.076.463.147.928.22 1.392h115.706V829.848z"/></clipPath><clipPath clipPathUnits="userSpaceOnUse" id="u"><path style="fill:red;fill-opacity:1;fill-rule:nonzero;stroke:none" d="M749.395 831.523v118.653h66.978c-.022-2.111.017-4.223.178-6.328.21-2.742 1.616-4.1 3.008-4.164.46-.022.918.102 1.332.36.426-1.823 1.51-2.747 2.63-2.794 1.17-.049 2.363.84 2.854 2.604a2.254 2.254 0 0 1 1.162-.264c1.2.057 2.485 1.04 3.139 3.09.454-.456 1.015-.698 1.595-.715a2.34 2.34 0 0 1 .71.094c.255-.339.527-.63.822-.829.392-2.3 1.658-3.378 2.914-3.343 1.548.043 3.063 1.752 2.85 4.861-.171 2.476-.062 4.956.152 7.428h46.765V831.523z"/></clipPath><clipPath clipPathUnits="userSpaceOnUse" id="t"><path style="fill:red;fill-opacity:1;fill-rule:nonzero;stroke:none" d="M663.914 831.523v118.653h19.938v-3.24c0-2.138.788-3.493 1.789-4.073-.002-.154-.01-.308-.012-.463-.033-2.933 1.433-4.4 2.914-4.4 1.035 0 2.075.72 2.621 2.152.46-.382.99-.58 1.525-.58.423 0 .844.134 1.235.373.366-.19.763-.278 1.162-.26.593.028 1.184.306 1.691.81.343-.21.713-.324 1.086-.337.67-.023 1.344.285 1.897.873a2.97 2.97 0 0 1 1.156.475c.531-1.15 1.441-1.727 2.367-1.727 1.479 0 3 1.467 3.088 4.399.06 2.003.206 4 .367 5.998h45.657V831.523z"/></clipPath><clipPath clipPathUnits="userSpaceOnUse" id="s"><path style="fill:red;fill-opacity:1;fill-rule:nonzero;stroke:none" d="M531.502 831.523v120.329h99.432a80.832 80.832 0 0 1 .177-7.829c.215-2.925 1.797-4.388 3.276-4.388.908 0 1.775.557 2.263 1.662a2.259 2.259 0 0 1 1.112-.455c-.368-3.015 1.064-4.698 2.617-4.762 1.388-.057 2.868 1.176 3.238 3.9.124.91.28 1.813.422 2.72l.09.001c1.39.073 2.801 1.437 3.025 4.178.136 1.654.194 3.315.284 4.973h19.476V831.523z"/></clipPath><clipPath clipPathUnits="userSpaceOnUse" id="z"><path style="fill:red;fill-opacity:1;fill-rule:nonzero;stroke:none" d="M616.982 948.852v153.85h48.256V992.573c-.983.618-2.135.482-2.965-.324-.224-.005-.447-.01-.671-.02-5.676-.22-5.628-5.804-.301-5.927-.011-1.122-.019-2.244-.057-3.365-.053-1.387-.126-2.776-.326-4.15-.229-1.56-.531-3.107-.744-4.669-.376-1.965-.847-3.914-1.053-5.908-.24-2.225-.558-4.453-.383-6.697.194-2.364.426-4.724.776-7.07.405-2.72 1.912-4.056 3.312-4.112 1.013-.04 1.968.593 2.412 1.856v-3.336h-17.955c.096 1.755.154 3.512.305 5.263l.103 1.004c.563 5.472-4.589 6.344-5.724 1.621a3.196 3.196 0 0 1-.947-.758c-.736 1.846-2.387 2.418-3.704 1.633.16.952.382 1.888.788 2.77 2.449 5.33-3.33 7.725-5.477 2.265a22.703 22.703 0 0 1-1.525-6.945 90.934 90.934 0 0 1-.19-6.853z"/></clipPath><clipPath clipPathUnits="userSpaceOnUse" id="q"><path style="fill:red;fill-opacity:1;fill-rule:nonzero;stroke:none" d="M1314.242 992.734v58.008h86.027v-3.156c-.049 0-.098.01-.146.01-.104.01-.208.018-.313.025-.436.141-.892.15-1.332.023a19.344 19.344 0 0 1-2.12-.19c-2.647-.371-3.915-1.792-3.964-3.152-.365-1.49.835-3.266 3.75-3.709v-13.154c0-1.491-.01-2.982-.018-4.473-.014-1.657-.027-3.314-.092-4.97a141.404 141.404 0 0 0-.32-4.878c-.133-2.064-.103-4.125 0-6.19.073-1.648.171-3.294.293-4.938-.07.01-.14.01-.21.02-5.13.628-6.154-3.889-2.347-5.448.682-.532 1.675-.927 2.995-1.047.955-.086 1.911-.155 2.869-.224a7.258 7.258 0 0 1 .955-.013v-2.544z"/></clipPath><clipPath clipPathUnits="userSpaceOnUse" id="r"><path style="fill:red;fill-opacity:1;fill-rule:nonzero;stroke:none" d="M1314.63 1048.535v117.856h86.417v-82.444a88.57 88.57 0 0 0-6.55-.096c-5.866.134-5.866-5.794 0-5.926a91.812 91.812 0 0 1 2.403-.021l-.511-.041c-3.656-.28-5.238-2.579-4.483-4.225-1.911-1.201-1.764-3.659.686-4.738-1.748-1.738-.657-4.57 3.308-4.608h.272c1.64.036 3.26.296 4.875.57v-16.328z"/></clipPath><clipPath clipPathUnits="userSpaceOnUse" id="p"><path style="fill:red;fill-opacity:1;fill-rule:nonzero;stroke:none" d="M1531.094 1043.348v115.707h263.205v-115.707h-185.217c.072 1.552.139 3.104.195 4.656.086 2.271-.128 4.51-.734 6.7l-.162.62c-1.487 5.675-7.226 4.168-5.733-1.506l.19-.714c.027-.095.049-.192.074-.288a3.79 3.79 0 0 1-.695-.933c.05.744.049 1.408-.168 1.56-4.427 3.116-5.11 2.682-6.67-.691-.17-.444-.34-.888-.512-1.332-.626.64-1.338 1.16-2.123 1.264-2.86.377-4.152-1.18-4.783-3.561-.206-1.923-.136-3.849-.023-5.775zm62.748 4.986c0 .021 0 .043.01.062.015.01.03.012.047.018-.01-.01-.01-.01-.014-.019a3.339 3.339 0 0 0-.041-.062z"/></clipPath><clipPath clipPathUnits="userSpaceOnUse" id="n"><path style="fill:red;fill-opacity:1;fill-rule:nonzero;stroke:none" d="M1711.478 863.082v150.785h17.006c-.161-1.278-.276-2.564-.42-3.85-.178-1.59.12-2.778.66-3.556-.32-2.395.887-3.919 2.352-3.99.852-.042 1.79.42 2.567 1.474.28-.124.584-.19.904-.191 1.15 0 2.483.834 3.472 2.799.026.053.046.107.072.16.075-1.938 1.187-3.066 2.461-3.121 1.033-.044 2.166.63 2.944 2.137a2.099 2.099 0 0 1 1.174-.303c1.38.049 2.93 1.37 3.517 4.056.32 1.468.682 2.923 1.014 4.385h44.055V863.082z"/></clipPath><clipPath clipPathUnits="userSpaceOnUse" id="o"><path style="fill:red;fill-opacity:1;fill-rule:nonzero;stroke:none" d="M1711.478 1010.865v8.97c.108 0 .216-.01.329-.01.32 0 .664.033 1.027.087 1.887.28 3.77.57 5.666.781.742.081 1.486.134 2.23.184 2.815.19 4.179 1.656 4.19 3.084.383.016.766.024 1.148.049 1.614.132 3.229.268 4.844.375 5.854.387 5.461 6.3-.393 5.912-1.615-.108-3.23-.24-4.843-.373-1.775-.125-3.558-.101-5.332-.243-.068.056-.132.115-.207.167 1.001 2.001-.798 4.383-4.676 3.574-1.265-.264-2.524-.547-3.791-.8l-.192-.04v14.803h81.778v-36.52h-44.754c.463 1.992.96 3.973 1.308 5.992.852 4.93-3.28 6.383-5.126 3.117-1.269 1.62-3.663 1.29-4.698-1.322-.688.813-1.714 1.075-2.687.696-.412.44-.934.71-1.506.753-.81 2.329-4.444 2.734-6.086-1.11l-.436-1.02c-.657-2.325-.866-4.714-1.117-7.106z"/></clipPath><clipPath clipPathUnits="userSpaceOnUse" id="l"><path style="fill:red;fill-opacity:1;fill-rule:nonzero;stroke:none" d="M1443.303 863.574v76.545h57.33v-42.592c-1.997-.28-3.987-.598-5.985-.873-4.283-.589-4.879-3.913-2.57-5.304-1.476-.687-2.08-1.896-1.822-3.002-1.49-1.55-.572-4.226 3.025-4.774.446-.964 1.598-1.727 3.41-1.777.323-.01.667.006 1.032.045.97.104 1.94.217 2.91.328v-18.596z"/></clipPath><clipPath clipPathUnits="userSpaceOnUse" id="x"><path style="fill:red;fill-opacity:1;fill-rule:nonzero;stroke:none" d="M1238.818 829.848v120.328h26.09c-.181-3.488-.214-6.987.198-10.463.323-2.73 1.784-4.02 3.175-4.02 1.577.001 3.065 1.66 2.705 4.756-.069.592-.11 1.185-.152 1.778.632-.583 1.355-.846 2.031-.807 1.123.064 2.12.95 2.367 2.54a3.296 3.296 0 0 1 2.98.163c.08-2.226 1.323-3.37 2.667-3.326.794.026 1.616.48 2.258 1.351.542-.826 1.29-1.253 2.048-1.289.569-.027 1.14.172 1.633.575.55-.477 1.175-.69 1.778-.657 1.562.087 2.97 1.828 2.51 4.91-.22 1.487-.257 2.987-.217 4.489h101.779V829.848zm39.752 119.166.166.09c-.019-.014-.032-.026-.053-.04-.112-.05-.139-.064-.113-.05zm-2.076.404c.363.262.526.086 0 0z"/></clipPath><clipPath clipPathUnits="userSpaceOnUse" id="k"><path style="fill:red;fill-opacity:1;fill-rule:nonzero;stroke:none" d="M1443.82 816.568v49.284h111.793v-49.284h-73.797a716.543 716.543 0 0 1-.261 5.635l-.121 2.363c-.235 4.555-3.862 5.383-5.325 2.774-.932 1.026-2.267 1.157-3.295.383-1.256 2.485-4.711 2-5.457-2.227-1.13-.347-2.207-1.55-2.6-3.73a397.74 397.74 0 0 0-.982-5.198z"/></clipPath><clipPath clipPathUnits="userSpaceOnUse" id="j"><path style="fill:red;fill-opacity:1;fill-rule:nonzero;stroke:none" d="M1495.262 762.805v19.715c.828.154 1.662.287 2.498.4 2.028.217 4.046.509 6.047.906 3.992.794 4.654 3.833 2.765 5.238 1.328 1.105 1.315 2.842-.04 3.922 1.612.336 2.594 1.134 3.007 2.034 2.701 1.456 2.09 4.75-1.488 5.207-.678.38-1.576.638-2.7.685-2.685.114-5.37.162-8.056.016-.677-.024-1.356-.053-2.033-.082v18.593h59.988v-56.634z"/></clipPath><clipPath clipPathUnits="userSpaceOnUse" id="i"><path style="fill:red;fill-opacity:1;fill-rule:nonzero;stroke:none" d="M1476.824 677.322v88.483h3.12c-.06-.946-.125-1.891-.18-2.836-.183-3.111 1.388-4.698 2.959-4.623v-.045c-.171-2.928 1.22-4.492 2.697-4.59.411-.027.826.072 1.219.273.502-1.15 1.443-1.743 2.422-1.693.818.042 1.66.533 2.289 1.52a2.39 2.39 0 0 1 1.115-.235c1.577.065 2.995 1.784 2.504 4.862-.266 1.666-.448 3.343-.606 5.023.22.776.419 1.558.602 2.344h63.635v-88.483z"/></clipPath><clipPath clipPathUnits="userSpaceOnUse" id="h"><path style="fill:red;fill-opacity:1;fill-rule:nonzero;stroke:none" d="M1443.303 678.998v68.37h10.007a77.875 77.875 0 0 1 .278-7.442c.232-2.74 1.652-4.088 3.045-4.145.77-.03 1.528.335 2.076 1.074.517-1.502 1.565-2.27 2.625-2.27 1.085 0 2.165.796 2.668 2.37.532-1.548 1.576-2.322 2.62-2.365 1.57-.065 3.139 1.532 2.946 4.642-.167 2.706-.077 5.425-.04 8.135h8.62v-68.369z"/></clipPath><clipPath clipPathUnits="userSpaceOnUse" id="g"><path style="fill:red;fill-opacity:1;fill-rule:nonzero;stroke:none" d="M1317.39 661.543v75.768h62.053v-32.125c-1.698-.014-3.396-.01-5.095 0-3.252.018-4.697-1.794-4.344-3.418-2.632-1.108-2.54-4.179.607-5.2-3.296-1.173-3.241-4.535-.19-5.386.11-.163.247-.32.391-.477-.982-1.48-.12-3.726 3.196-4.533a36.082 36.082 0 0 1 5.435-.875v-23.754z"/></clipPath><clipPath clipPathUnits="userSpaceOnUse" id="f"><path style="fill:red;fill-opacity:1;fill-rule:nonzero;stroke:none" d="M1317.594 566.7v96.86h62.054v-36.5a52.934 52.934 0 0 0-4.062-.097c-3.103.058-4.565-1.575-4.385-3.14-3.053-.977-2.487-4.972 2.205-5.79.343-.06.683-.135 1.026-.197a85.596 85.596 0 0 0-4.377-.31c-5.678-.249-5.485-5.806-.139-5.919h.029c.055-.166.135-.33.229-.492-1.73-1.6-.702-4.58 3.37-4.937a53.908 53.908 0 0 1 4.69-.2c.471 0 .943.006 1.414.016V566.7z"/></clipPath><clipPath clipPathUnits="userSpaceOnUse" id="e"><path style="fill:red;fill-opacity:1;fill-rule:nonzero;stroke:none" d="M1317.594 471.162V569.7h61.46v-39.015c-2.341.088-4.683.185-7.025.279-5.084.204-5.751-4.207-2.015-5.549-1.657-1.119-1.662-3.128-.022-4.268-1.125-.79-1.485-1.987-1.047-3.017-3.259-1.3-2.448-5.428 2.44-5.537a89.764 89.764 0 0 1 7.67.16v-41.59z"/></clipPath><clipPath clipPathUnits="userSpaceOnUse" id="d"><path style="fill:red;fill-opacity:1;fill-rule:nonzero;stroke:none" d="M1317.205 420.879v53.283h62.053v-19.736c-1.782-.194-3.574-.16-5.36.031-5.148.549-6.133-3.967-2.285-5.48-.048-.034-.107-.06-.152-.094-3.036-.952-3.058-4.319.377-5.375-1.757-1.557-.789-4.573 3.273-5.03 1.18-.132 2.363-.17 3.547-.175.2-.001.4.002.6.002v-17.426z"/></clipPath><clipPath clipPathUnits="userSpaceOnUse" id="c"><path style="fill:red;fill-opacity:1;fill-rule:nonzero;stroke:none" d="M1317.307 372.271v51.608h61.95v-17.084c-2.259-.185-4.519-.352-6.788-.277-4.947.162-5.72-4.043-2.319-5.467-.554-1.02-.315-2.2.64-3-.843-1.728.536-3.977 4.151-3.977h4.317v-21.803z"/></clipPath><clipPath clipPathUnits="userSpaceOnUse" id="b"><path style="fill:red;fill-opacity:1;fill-rule:nonzero;stroke:none" d="M1329.752 342.102v33.17h48.617c-.17-1.064-.295-2.136-.45-3.206-.743-5.179 3.41-6.43 5.278-2.591.825-.59 1.9-.727 3.418-.346a8.7 8.7 0 0 1 .414-1.149c.184-.406.437-.777.655-1.166 1.01-1.003 1.99-1.502 2.908-1.511.868-.01 1.679.428 2.4 1.289 2.522-.358 4.281 1.63 5.844 4.072a3.687 3.687 0 0 1 1.672-.894c.077-.27.318-.353.85-.094.315 0 .65.03 1.01.103.581.12 1.032.396 1.423.74.674.045 1.5.127 2.514.223.08-.092.162-.185.252-.28.639-.73 1.002-1.743 1.722-2.407.318-.294.68-.535 1.02-.803 1.272.237 2.655.14 3.816.71 1.001.493 1.187 3.906 1.254 4.958.076.785.077 1.57.041 2.352h3.332v-33.17zm71.605 27.574c-.301 0-.584.033-.85.093-.13.46.204 1.457.37 2.245.181-1.067.616-1.458 1.71-1.52-.518-.4-.926-.67-1.23-.818zm-1.27 3.095c.03.045.062.091.087.125.01-.01.014-.02.022-.03-.03-.031-.071-.062-.108-.094zm-12.87.81c-.162.018-.467.098-.047.134.048-.05.07-.07.127-.13.01-.01-.026-.011-.08-.005z"/></clipPath><clipPath clipPathUnits="userSpaceOnUse" id="a"><path style="fill:red;fill-opacity:1;fill-rule:nonzero;stroke:none" d="M1414.928 354.799v63.527a31.841 31.841 0 0 1 3.369-.21 30.57 30.57 0 0 1 3.41.16l1.115.199c3.01.538 4.145 2.414 3.73 3.921.982 1.396.422 3.189-1.505 3.881.077.886-.356 1.785-1.318 2.383 2.859.446 3.897 2.396 3.197 3.924.522 1.726-.96 3.698-4.414 3.492-.687-.04-1.374-.054-2.06-.08 3.712.63 4.184 3.88 1.642 5.223l.779.152c2.605.51 3.733 1.976 3.725 3.328.535.065.81.095 2.384.264 5.203.557 5.233 5.275 1.047 5.851.227 1.668-1.399 3.37-4.668 3.038-1.432-.146-2.866-.267-4.299-.407-.692.217-1.546.299-2.554.184-1.11-.126-.55-.056-1.686-.211a56.23 56.23 0 0 1-1.894-.338v143.076c1.354.021 2.708.06 4.062.12 3.94.17 5.053 2.877 3.62 4.572 2.285 1.525 1.48 4.645-2.266 5.033.664 1.147.268 2.585-1.172 3.453 1.372.098 2.743.234 4.11.398 4.591.553 5.064 4.292 2.228 5.518.019.571-.248 1.085-.637 1.541.031.052.026.11.053.162.103.21.174.43.21.65a2.1 2.1 0 0 1 0 .725c-.088.65-.446 1.241-1.093 1.693a3.81 3.81 0 0 1-.734.418c-.048.02-.073.053-.123.07.747 1.675-.558 3.725-3.803 3.803.46.016.92.03 1.379.04 5.865.116 5.738 6.058-.127 5.925-1.907-.043-3.815-.124-5.711-.318v50.363h172.254V354.8z"/></clipPath><clipPath clipPathUnits="userSpaceOnUse" id="y"><path style="fill:red;fill-opacity:1;fill-rule:nonzero;stroke:none" d="M1339.418 735.986v95.186h40.314v-1.695c-.694.236-1.426.371-2.172.474-.395.381-.54.353-.539.065-3.34.351-2.815-1.342-2.466-5.477.01-.122.489-.355.904-.543a4.284 4.284 0 0 1-.246-.955 10.557 10.557 0 0 1 .156-3.068c0-.188 0-.373-.01-.56-.029-1.665-.067-3.331-.172-4.993-.055-.757-.134-1.51-.213-2.264-.324-.358-.663-.705-.931-1.105-.844-1.257-.665-3.278-.772-4.715.042-2.228.354-4.438.7-6.637.016-.108.034-.217.052-.326-.07-.744-.116-1.487-.066-2.209.037-.53-.205-1.29.243-1.576.145-.093.297-.173.449-.252.292-2.017.529-4.04.564-6.082v-1.545c-.655-1.359-1.075-3.57-1.215-4.295-.71-3.614-1.346-7.275-1.037-10.975.11-1.093.181-2.775.682-3.789.092-.185.19-.355.289-.521-.218-.424-.432-.85-.568-1.305-.128-.426-.073-.885-.084-1.33-.053-2.183.205-4.364.34-6.539.033-.316.115-1.158.222-1.953.095-1.824.361-3.915 1.262-5.37-.158-.099-.32-.189-.473-.298-1.144-1.114-1.99-1.573-2.082-3.443a3.536 3.536 0 0 1 .83-2.495c.194-.252.49-.55.92-1.015.073-.051.15-.096.223-.147-5.054.422-5.823-4.747-.363-5.908 1.843-.392 3.695-.636 5.574-.642v-1.698zm37.603 94.03c.073-.008.123-.002.2-.012.114-.015.226-.037.34-.053.166-.16.368-.374.632-.691.328-.394.553-.554.678-.707a7.249 7.249 0 0 1-1.3-.846c-.276 1.007-.548 1.91-.55 2.309z"/></clipPath></defs><path style="fill:none;stroke:#000;stroke-width:3.47383" clip-path="url(#a)" d="M1416.665 356.536h168.781v322.05h-168.781z"/><path style="fill:none;stroke:#000;stroke-width:3.0198" clip-path="url(#b)" d="M1331.261 343.611h84.971v30.15h-84.971z"/><path style="fill:none;stroke:#000;stroke-width:2.89204" clip-path="url(#c)" d="M1318.753 373.717h59.059v48.715h-59.059z"/><path style="fill:none;stroke:#000;stroke-width:2.93117" clip-path="url(#d)" d="M1318.671 422.344h59.122v50.352h-59.122z"/><path style="fill:none;stroke:#000;stroke-width:2.9161" clip-path="url(#e)" d="M1319.053 472.62h58.544v95.622h-58.544z"/><path style="fill:none;stroke:#000;stroke-width:2.93027" clip-path="url(#f)" d="M1319.06 568.165h59.123v93.932h-59.123z"/><path style="fill:none;stroke:#000;stroke-width:2.97736" clip-path="url(#g)" d="M1318.88 663.032h59.076v72.789h-59.076z"/><path style="fill:none;stroke:#000;stroke-width:3" clip-path="url(#h)" d="M1444.803 680.499h31.846v65.368h-31.846z"/><path style="fill:none;stroke:#000;stroke-width:3" clip-path="url(#i)" d="M1478.325 678.823h78.777v85.481h-78.777z"/><path style="fill:none;stroke:#000;stroke-width:3" clip-path="url(#j)" d="M1496.762 764.304h56.988v53.635h-56.988z"/><path style="fill:none;stroke:#000;stroke-width:3;stroke-dasharray:none" clip-path="url(#k)" d="M1445.321 818.068h108.793v46.284h-108.793z"/><path style="fill:none;stroke:#000;stroke-width:2.99628" clip-path="url(#l)" d="M1444.801 865.072h54.333v73.549h-54.333z"/><path style="fill:none;stroke:#000;stroke-width:2.96127" clip-path="url(#m)" d="M1500.094 865.156h211.922v138.85h-211.922z"/><path style="fill:none;stroke:#000;stroke-width:2.95432" clip-path="url(#n)" d="M1712.956 864.56h78.823v147.83h-78.823z"/><path style="fill:none;stroke:#000;stroke-width:2.48511" clip-path="url(#o)" d="M1712.722 1012.11h79.292v34.037h-79.292z"/><path style="fill:none;stroke:#000;stroke-width:3.71725;stroke-dasharray:none" clip-path="url(#p)" d="M1532.953 1045.206h259.486v111.989h-259.486z"/><path style="fill:none;stroke:#000;stroke-width:3.04325" d="M1498.459 1044.235h33.479v112.256h-33.479z"/><path style="fill:none;stroke:#000;stroke-width:2.97358" clip-path="url(#q)" d="M1315.729 994.222h83.053v55.033h-83.053z"/><path style="fill:none;stroke:#000;stroke-width:3.001" clip-path="url(#r)" d="M1316.132 1050.038h83.415v114.854h-83.415z"/><path style="fill:none;stroke:#000;stroke-width:2.47747" d="M1399.777 1157.927h98.922v31.453h-98.922z"/><path style="fill:none;stroke:#000;stroke-width:3.08394" clip-path="url(#s)" d="M533.043 833.066h132.328v117.243H533.043z"/><path style="fill:none;stroke:#000;stroke-width:3.03665" clip-path="url(#t)" d="M665.432 833.042h85.445v115.615h-85.445z"/><path style="fill:none;stroke:#000;stroke-width:3.06212" clip-path="url(#u)" d="M750.926 833.055h134.026v115.589H750.926z"/><path style="fill:none;stroke:#000;stroke-width:3" clip-path="url(#v)" d="M883.307 831.348h229.626v117.327H883.307z"/><path style="fill:none;stroke:#000;stroke-width:3.04273" clip-path="url(#w)" d="M1114.631 831.369h125.665v117.285h-125.665z"/><path style="fill:none;stroke:#000;stroke-width:3.08752" clip-path="url(#x)" d="M1240.361 831.392h150.762v117.24h-150.762z"/><path style="fill:none;stroke:#000;stroke-width:2.24209" clip-path="url(#y)" d="M1340.54 737.107h38.071v92.944h-38.071z"/><path style="fill:none;stroke:#000;stroke-width:3.08328" clip-path="url(#z)" d="M618.524 950.393h45.172v150.766h-45.172z"/><path style="fill:none;stroke:#000;stroke-width:2.18078" d="M665.004 993.521h651.148v1.801H665.004z"/></svg>