<?xml version="1.0" encoding="UTF-8" standalone="no"?>
<!-- Created with Inkscape (http://www.inkscape.org/) -->

<svg
   width="2560"
   height="1440"
   viewBox="0 0 2560 1440"
   version="1.1"
   id="svg1"
   xml:space="preserve"
   inkscape:version="1.4 (86a8ad7, 2024-10-11)"
   sodipodi:docname="parter.svg"
   xmlns:inkscape="http://www.inkscape.org/namespaces/inkscape"
   xmlns:sodipodi="http://sodipodi.sourceforge.net/DTD/sodipodi-0.dtd"
   xmlns="http://www.w3.org/2000/svg"
   xmlns:svg="http://www.w3.org/2000/svg"><sodipodi:namedview
     id="namedview1"
     pagecolor="#ffffff"
     bordercolor="#000000"
     borderopacity="0.25"
     inkscape:showpageshadow="2"
     inkscape:pageopacity="0.0"
     inkscape:pagecheckerboard="0"
     inkscape:deskcolor="#d1d1d1"
     inkscape:document-units="px"
     inkscape:zoom="0.59662135"
     inkscape:cx="1342.5601"
     inkscape:cy="706.47824"
     inkscape:window-width="2560"
     inkscape:window-height="1417"
     inkscape:window-x="-8"
     inkscape:window-y="-8"
     inkscape:window-maximized="1"
     inkscape:current-layer="layer1" /><defs
     id="defs1"><clipPath
       clipPathUnits="userSpaceOnUse"
       id="clipPath67"><path
         id="path68"
         style="fill:#ff0000;fill-opacity:1;fill-rule:nonzero;stroke:none"
         d="m 1113.1094,829.84766 v 120.32812 h 28.2246 v -7.77539 c 0,-2.93318 1.4814,-4.40039 2.9629,-4.40039 1.1162,0 2.2322,0.83293 2.7148,2.49805 0.2741,-0.10826 0.5553,-0.17969 0.8399,-0.17969 0.7462,0 1.4919,0.37276 2.0488,1.11719 0.4963,-1.63534 1.6035,-2.45508 2.709,-2.45508 0.8779,-10e-6 1.7465,0.52738 2.3125,1.55859 0.3189,-0.13964 0.6604,-0.20558 1.0078,-0.1875 1.3957,0.0727 2.8708,1.42926 3.2246,4.15625 0.01,0.0458 0.015,0.091 0.022,0.13672 -0.064,-1.40805 -0.097,-2.81752 -0.064,-4.22851 0.067,-2.93241 1.5844,-4.39846 3.0664,-4.39844 1.4821,1e-5 2.9293,1.46608 2.8594,4.39844 -0.078,3.26067 0.2056,6.51091 0.4414,9.75976 h 76.3399 V 829.84766 Z" /></clipPath><clipPath
       clipPathUnits="userSpaceOnUse"
       id="clipPath75"><path
         id="path76"
         style="fill:#ff0000;fill-opacity:1;fill-rule:nonzero;stroke:none"
         d="m 1238.8184,829.84766 v 120.32812 h 26.0898 c -0.1814,-3.48819 -0.2147,-6.98656 0.1973,-10.46289 0.3235,-2.73075 1.7848,-4.02024 3.1757,-4.01953 1.577,8e-4 3.0643,1.66011 2.7051,4.75586 -0.069,0.59171 -0.1102,1.18454 -0.1523,1.77734 0.6323,-0.58248 1.3545,-0.84524 2.0312,-0.80664 1.1227,0.064 2.1195,0.94957 2.3672,2.54102 1.0175,-0.44707 2.139,-0.33438 2.9805,0.16211 0.08,-2.22625 1.3225,-3.36975 2.666,-3.32617 0.794,0.0257 1.6161,0.47963 2.2578,1.35156 0.5422,-0.82674 1.2906,-1.25315 2.0488,-1.28906 0.5682,-0.0269 1.139,0.17212 1.6329,0.57421 0.5501,-0.47638 1.1749,-0.68957 1.7773,-0.65625 1.5625,0.0864 2.9702,1.82785 2.5098,4.91016 -0.2204,1.4865 -0.2569,2.98649 -0.2168,4.48828 H 1392.668 V 829.84766 Z m 39.7519,119.16601 c 0.021,0.0113 0.092,0.0497 0.166,0.0898 -0.019,-0.0135 -0.032,-0.0251 -0.053,-0.0391 -0.1126,-0.0504 -0.1392,-0.0646 -0.1133,-0.0508 z m -2.0762,0.4043 c 0.3625,0.26185 0.5257,0.0862 0,0 z" /></clipPath><clipPath
       clipPathUnits="userSpaceOnUse"
       id="clipPath93"><path
         id="path94"
         style="fill:#ff0000;fill-opacity:1;fill-rule:nonzero;stroke:none"
         d="m 881.80664,829.84766 v 120.32812 h 93.60156 c -0.005,-2.23106 0.002,-4.46216 0,-6.69336 -0.002,-2.93318 1.47587,-4.40039 2.95703,-4.40039 0.21886,0 0.4362,0.0414 0.65039,0.10547 0.13126,-2.46665 1.51996,-3.71822 2.92383,-3.65234 1.22218,0.0573 2.40271,1.17428 2.81836,3.28711 0.009,-0.87052 0.0329,-1.74143 0.0879,-2.61133 0.17346,-2.74439 1.55914,-4.10852 2.94727,-4.18164 1.13729,-0.0599 2.26487,0.75976 2.73828,2.38672 0.44023,-0.51681 1.02677,-0.80521 1.66602,-0.79883 1.09947,0.011 2.34709,0.87716 3.24218,2.88672 1.72531,3.87345 2.39211,8.12334 3.06836,12.27929 0.0759,0.4638 0.14718,0.92848 0.22071,1.39258 H 1114.4336 V 829.84766 Z" /></clipPath><clipPath
       clipPathUnits="userSpaceOnUse"
       id="clipPath115"><path
         id="path116"
         style="fill:#ff0000;fill-opacity:1;fill-rule:nonzero;stroke:none"
         d="m 749.39453,831.52344 v 118.65234 h 66.97852 c -0.022,-2.11108 0.0169,-4.22244 0.17773,-6.32812 0.20945,-2.74187 1.61619,-4.09874 3.00781,-4.16407 0.46105,-0.0216 0.91866,0.10279 1.33203,0.36133 0.42635,-1.82429 1.51018,-2.74825 2.63086,-2.79492 1.1686,-0.0487 2.36269,0.84045 2.85352,2.60352 0.35851,-0.1887 0.75412,-0.283 1.16211,-0.26368 1.19916,0.0568 2.48523,1.04088 3.13867,3.08985 0.45422,-0.4561 1.01502,-0.69806 1.5957,-0.71485 0.23508,-0.007 0.47346,0.0267 0.70899,0.0937 0.25599,-0.33824 0.52794,-0.62958 0.82226,-0.82812 0.39264,-2.30058 1.65815,-3.37853 2.91407,-3.34375 1.54777,0.0429 3.06355,1.75217 2.84961,4.86133 -0.17037,2.47588 -0.0611,4.95583 0.15234,7.42773 h 46.76563 V 831.52344 Z" /></clipPath><clipPath
       clipPathUnits="userSpaceOnUse"
       id="clipPath145"><path
         id="path146"
         style="fill:#ff0000;fill-opacity:1;fill-rule:nonzero;stroke:none"
         d="m 663.91406,831.52344 v 118.65234 h 19.9375 v -3.24023 c 0,-2.13803 0.7886,-3.49249 1.78906,-4.07227 -0.002,-0.15433 -0.01,-0.30855 -0.0117,-0.46289 -0.0328,-2.933 1.43296,-4.40039 2.91406,-4.40039 1.03521,0 2.07542,0.71923 2.62109,2.15234 0.46072,-0.38255 0.9907,-0.58008 1.52539,-0.58007 0.42292,0 0.84354,0.13335 1.23438,0.37304 0.36633,-0.19083 0.76349,-0.27846 1.16211,-0.25976 0.59296,0.0278 1.18396,0.30519 1.6914,0.80859 0.34308,-0.20913 0.71216,-0.32309 1.08594,-0.33594 0.67044,-0.023 1.34334,0.28474 1.89649,0.87305 0.38379,0.0617 0.77524,0.22273 1.15625,0.47461 0.53146,-1.15059 1.44108,-1.72662 2.36718,-1.72656 1.47846,8e-5 2.99915,1.46659 3.08789,4.39843 0.0606,2.00307 0.20596,4.001 0.36719,5.99805 h 45.65625 V 831.52344 Z" /></clipPath><clipPath
       clipPathUnits="userSpaceOnUse"
       id="clipPath184"><path
         id="path185"
         style="fill:#ff0000;fill-opacity:1;fill-rule:nonzero;stroke:none"
         d="m 531.50195,831.52344 v 120.32812 h 99.43164 c -0.062,-2.60945 -0.0133,-5.21901 0.17774,-7.82812 0.21425,-2.92535 1.79705,-4.38845 3.27539,-4.38867 0.90834,-1.5e-4 1.77549,0.5575 2.26367,1.66211 0.34173,-0.26586 0.72262,-0.40403 1.11133,-0.45508 -0.36777,-3.01528 1.06428,-4.6978 2.61719,-4.76172 1.38768,-0.0571 2.86793,1.17558 3.23828,3.90039 0.12354,0.90894 0.27904,1.8128 0.42187,2.71875 0.0298,3.8e-4 0.06,3.9e-4 0.0899,0.002 1.39038,0.073 2.80119,1.43703 3.02539,4.17774 0.13534,1.65452 0.1941,3.31515 0.2832,4.97265 h 19.47656 V 831.52344 Z" /></clipPath><clipPath
       clipPathUnits="userSpaceOnUse"
       id="clipPath187"><path
         id="path188"
         style="fill:#ff0000;fill-opacity:1;fill-rule:nonzero;stroke:none"
         d="m 616.98242,948.85156 v 153.84964 h 48.25586 V 992.57422 c -0.9831,0.61807 -2.13493,0.48217 -2.96484,-0.32422 -0.22428,-0.005 -0.44787,-0.0109 -0.67188,-0.0195 -5.67521,-0.21997 -5.62783,-5.80472 -0.30078,-5.92774 -0.0108,-1.12189 -0.0187,-2.24395 -0.0566,-3.36523 -0.0536,-1.387 -0.12643,-2.77535 -0.32617,-4.15039 -0.22854,-1.55971 -0.53116,-3.10599 -0.74414,-4.66797 -0.37581,-1.9652 -0.84672,-3.91397 -1.05274,-5.9082 -0.23972,-2.22483 -0.55831,-4.45314 -0.38281,-6.69727 0.1934,-2.36354 0.42568,-4.72403 0.77539,-7.07031 0.40538,-2.71981 1.91219,-4.05569 3.3125,-4.11133 1.01274,-0.0402 1.96731,0.59294 2.41211,1.85547 v -3.33594 H 647.2832 c 0.0954,1.75526 0.15369,3.51277 0.30469,5.26367 0.0345,0.33505 0.069,0.66886 0.10352,1.00391 0.56293,5.47154 -4.58926,6.34419 -5.72461,1.62109 -0.33421,-0.17473 -0.65647,-0.41977 -0.94727,-0.75781 -0.73538,1.84527 -2.38673,2.41732 -3.70312,1.63281 0.15991,0.95149 0.38191,1.88755 0.78711,2.76954 2.44904,5.33071 -3.33029,7.72527 -5.47657,2.26562 -0.87711,-2.23119 -1.37577,-4.54425 -1.52539,-6.94531 -0.147,-2.2842 -0.21487,-4.56868 -0.18945,-6.85352 z" /></clipPath><clipPath
       clipPathUnits="userSpaceOnUse"
       id="clipPath205"><path
         id="path206"
         style="fill:#ff0000;fill-opacity:1;fill-rule:nonzero;stroke:none"
         d="m 1314.2422,992.73438 v 58.00782 h 86.0273 v -3.1563 c -0.049,0 -0.098,0.01 -0.1465,0.01 -0.1044,0.01 -0.2082,0.018 -0.3125,0.025 -0.4368,0.1416 -0.8929,0.15 -1.332,0.023 -0.708,-0.021 -1.4144,-0.09 -2.1211,-0.1894 -2.6464,-0.3719 -3.9146,-1.7926 -3.9629,-3.1524 -0.3655,-1.4898 0.8349,-3.2658 3.75,-3.7089 v -1.4551 -3.8203 c -1e-4,-1.2804 4e-4,-2.5614 0,-3.8418 v -4.0371 c 0,-1.4909 -0.01,-2.9818 -0.018,-4.4727 -0.014,-1.6572 -0.027,-3.3146 -0.092,-4.9707 -0.072,-1.6279 -0.1922,-3.2527 -0.3204,-4.877 -0.1331,-2.064 -0.1031,-4.1258 0,-6.1914 0.073,-1.6474 0.171,-3.2933 0.293,-4.9375 -0.07,0.01 -0.1406,0.011 -0.2109,0.02 -5.1286,0.6281 -6.1531,-3.88812 -2.3457,-5.4473 0.6812,-0.53204 1.6743,-0.92691 2.9941,-1.04688 0.9559,-0.0869 1.9119,-0.155 2.8692,-0.2246 0.1828,-0.0133 0.3609,-0.0222 0.5332,-0.0234 0.1444,-10e-4 0.2849,0.003 0.4218,0.01 v -2.54296 z" /></clipPath><clipPath
       clipPathUnits="userSpaceOnUse"
       id="clipPath261"><path
         id="path262"
         style="fill:#ff0000;fill-opacity:1;fill-rule:nonzero;stroke:none"
         d="m 1314.6309,1048.5352 v 117.8554 h 86.416 v -82.4433 c -2.1804,-0.1115 -4.3629,-0.146 -6.5508,-0.096 -5.8648,0.1339 -5.8649,-5.7945 0,-5.9258 0.8017,-0.018 1.6036,-0.025 2.4043,-0.022 -0.1705,-0.013 -0.3412,-0.028 -0.5117,-0.041 -3.6556,-0.2787 -5.2376,-2.5784 -4.4825,-4.2246 -1.9115,-1.2011 -1.7644,-3.6587 0.6856,-4.7383 -1.7481,-1.7376 -0.6566,-4.5689 3.3086,-4.6074 0.089,-8e-4 0.1798,0 0.2715,0 1.6409,0.036 3.2595,0.2955 4.875,0.5703 v -16.3281 z" /></clipPath><clipPath
       clipPathUnits="userSpaceOnUse"
       id="clipPath271"><path
         id="path272"
         style="fill:#ff0000;fill-opacity:1;fill-rule:nonzero;stroke:none"
         d="m 1531.0938,1043.3477 v 115.707 h 263.205 v -115.707 H 1609.082 c 0.072,1.5518 0.1385,3.1039 0.1953,4.6562 0.086,2.2715 -0.1286,4.5109 -0.7343,6.6992 -0.054,0.2066 -0.1081,0.4145 -0.1621,0.6211 -1.4866,5.6749 -7.2257,4.1673 -5.7325,-1.5058 0.063,-0.2381 0.1265,-0.4768 0.1895,-0.7149 0.027,-0.095 0.049,-0.1914 0.074,-0.2871 -0.257,-0.2517 -0.4952,-0.5579 -0.6953,-0.9336 0.051,0.7439 0.049,1.4079 -0.168,1.5606 -4.4268,3.1159 -5.1092,2.6811 -6.6699,-0.6914 -0.1706,-0.4442 -0.34,-0.8883 -0.5117,-1.3321 -0.6263,0.6393 -1.3383,1.16 -2.1231,1.2637 -2.8604,0.3778 -4.1515,-1.1798 -4.7832,-3.5606 -0.2053,-1.9233 -0.1356,-3.849 -0.023,-5.7753 z m 62.748,4.9863 v 0 c 0,0.021 -4e-4,0.043 0.01,0.062 0.015,0.01 0.031,0.012 0.047,0.018 -0.01,-0.01 -0.01,-0.01 -0.014,-0.019 -0.013,-0.02 -0.028,-0.043 -0.041,-0.062 z" /></clipPath><clipPath
       clipPathUnits="userSpaceOnUse"
       id="clipPath315"><path
         id="path316"
         style="fill:#ff0000;fill-opacity:1;fill-rule:nonzero;stroke:none"
         d="m 1711.4785,863.08203 v 150.78517 h 17.0059 c -0.1618,-1.2781 -0.2761,-2.5645 -0.4199,-3.8496 -0.1781,-1.5898 0.1198,-2.7781 0.6601,-3.5567 -0.3202,-2.3952 0.8861,-3.9186 2.3516,-3.9902 0.8523,-0.042 1.789,0.4204 2.5664,1.4746 0.2798,-0.1241 0.584,-0.191 0.9043,-0.1914 1.1492,0 2.4834,0.8339 3.4726,2.7988 0.026,0.053 0.046,0.1075 0.072,0.1602 0.075,-1.9383 1.1865,-3.0663 2.4609,-3.1211 1.0331,-0.044 2.1658,0.6301 2.9434,2.1367 0.3549,-0.2151 0.7563,-0.3177 1.1738,-0.3027 1.3797,0.049 2.9308,1.3701 3.5176,4.0566 0.3207,1.468 0.6822,2.9224 1.0137,4.3848 h 44.0547 V 863.08203 Z" /></clipPath><clipPath
       clipPathUnits="userSpaceOnUse"
       id="clipPath318"><path
         id="path319"
         style="fill:#ff0000;fill-opacity:1;fill-rule:nonzero;stroke:none"
         d="m 1711.4785,1010.8652 v 8.9707 c 0.1078,0 0.2152,-0.01 0.3281,-0.01 0.3212,0 0.6647,0.032 1.0274,0.086 1.8866,0.2796 3.7702,0.5698 5.666,0.7813 0.7416,0.081 1.4862,0.1336 2.2305,0.1836 2.8144,0.1903 4.1783,1.6567 4.1894,3.0839 0.3828,0.016 0.7661,0.024 1.1485,0.049 1.6135,0.1324 3.2283,0.2679 4.8437,0.375 5.8535,0.3877 5.4609,6.3011 -0.3926,5.9121 -1.6157,-0.1074 -3.23,-0.2389 -4.8437,-0.3731 -1.7747,-0.1242 -3.5578,-0.1009 -5.332,-0.2422 -0.068,0.056 -0.1321,0.1147 -0.2071,0.1661 1.0014,2.0017 -0.7976,4.3838 -4.6758,3.5742 -1.2644,-0.2639 -2.5242,-0.5467 -3.791,-0.7989 -0.064,-0.014 -0.1277,-0.027 -0.1914,-0.041 v 14.8028 h 81.7774 v -36.5196 h -44.7539 c 0.463,1.9922 0.9597,3.9727 1.3085,5.9922 0.8517,4.9299 -3.2814,6.3824 -5.1269,3.1172 -1.2681,1.6186 -3.6623,1.2902 -4.6973,-1.3223 -0.6879,0.8126 -1.7138,1.0745 -2.6875,0.6954 -0.412,0.4411 -0.9341,0.7106 -1.5058,0.7539 -0.8101,2.3281 -4.4441,2.7334 -6.086,-1.1114 -0.1451,-0.3399 -0.2904,-0.6797 -0.4355,-1.0195 -0.657,-2.3242 -0.8665,-4.7136 -1.1172,-7.1055 z" /></clipPath><clipPath
       clipPathUnits="userSpaceOnUse"
       id="clipPath365"><path
         id="path366"
         style="fill:#ff0000;fill-opacity:1;fill-rule:nonzero;stroke:none"
         d="m 1443.3027,863.57422 v 76.54492 h 57.3301 v -42.5918 c -1.9965,-0.27963 -3.9869,-0.59832 -5.9844,-0.87304 -4.2833,-0.58914 -4.8794,-3.91344 -2.5703,-5.30469 -1.4764,-0.68701 -2.0797,-1.89607 -1.8222,-3.00195 -1.4898,-1.54957 -0.5722,-4.22551 3.0253,-4.77344 0.4461,-0.96465 1.5978,-1.72717 3.4102,-1.77734 0.3229,-0.009 0.6667,0.006 1.0313,0.0449 0.9712,0.10412 1.9404,0.2169 2.9101,0.32812 v -18.5957 z" /></clipPath><clipPath
       clipPathUnits="userSpaceOnUse"
       id="clipPath368"><path
         id="path369"
         style="fill:#ff0000;fill-opacity:1;fill-rule:nonzero;stroke:none"
         d="m 1498.6133,863.67578 v 18.26563 c 1.9346,0.21751 3.8648,0.45773 5.8066,0.61914 1.1995,0.093 2.4002,0.15454 3.6016,0.21484 5.1471,0.25818 5.5419,4.85567 1.5898,5.76953 0.4309,0.87465 0.2897,1.86048 -0.3828,2.6211 2.1756,0.90663 2.6583,2.76284 1.7363,4.0664 0.078,1.58024 -1.5052,3.13981 -4.6152,2.90235 -1.4533,-0.11096 -2.9053,-0.23902 -4.3516,-0.42188 -1.1304,-0.14498 -2.2577,-0.31043 -3.3847,-0.47851 v 57.1621 c 1.5391,-0.2107 3.0844,-0.34868 4.6387,-0.33984 0.2585,10e-4 0.5163,0.008 0.7753,0.0176 5.8622,0.22288 5.8606,6.18641 0,5.92578 -0.6618,-0.0294 -1.3212,-0.024 -1.9785,0.01 -0.1072,0.62343 -0.1855,1.24903 -0.2383,1.87695 0.538,0.0419 1.1472,0.13608 1.8555,0.30664 0.7795,0.1877 1.1528,2.11619 1.3281,2.79492 0.1937,0.99784 0.3237,2.00502 0.4239,3.01563 0.3722,0.74029 0.6466,1.55255 0.8242,2.36328 0.068,0.61363 0.2131,1.2245 0.2031,1.84179 -0.01,0.96619 -0.2513,2.07753 -0.707,3.0918 0,0.26959 0.01,0.53903 0.012,0.8086 0.01,0.71555 -0.072,1.41996 -0.1621,2.12304 1.8876,0.30476 3.734,0.82568 5.5605,1.39063 5.6044,1.73344 3.8385,7.41354 -1.7597,5.66015 -1.1955,-0.37442 -2.4091,-0.69689 -3.6348,-0.95898 0.93,1.66443 -0.2645,3.94016 -3.8281,4.16016 -1.1091,0.0685 -2.211,0.18878 -3.3125,0.32617 v 16.6758 H 1713.498 V 863.67578 Z" /></clipPath><clipPath
       clipPathUnits="userSpaceOnUse"
       id="clipPath382"><path
         id="path383"
         style="fill:#ff0000;fill-opacity:1;fill-rule:nonzero;stroke:none"
         d="m 1443.8203,816.56836 v 49.2832 h 111.793 v -49.2832 h -73.7969 c -0.081,1.87854 -0.1659,3.75661 -0.2617,5.63476 -0.04,0.78739 -0.08,1.57592 -0.1211,2.36329 -0.2342,4.55442 -3.8619,5.3821 -5.3242,2.77343 -0.9327,1.02651 -2.2672,1.15672 -3.2949,0.38282 -1.2568,2.48521 -4.7118,2.00094 -5.4571,-2.22657 -1.1313,-0.34722 -2.2072,-1.55046 -2.5996,-3.73047 -0.3124,-1.73523 -0.6469,-3.46606 -0.9824,-5.19726 z" /></clipPath><clipPath
       clipPathUnits="userSpaceOnUse"
       id="clipPath400"><path
         id="path401"
         style="fill:#ff0000;fill-opacity:1;fill-rule:nonzero;stroke:none"
         d="m 1495.2617,762.80469 v 19.71484 c 0.8286,0.15441 1.6619,0.2871 2.4981,0.40039 2.0281,0.21668 4.0465,0.50865 6.0468,0.90625 3.9919,0.79347 4.6541,3.83308 2.7657,5.23828 1.3281,1.1046 1.3151,2.84149 -0.041,3.92188 1.6124,0.33531 2.5951,1.13403 3.0079,2.0332 2.7009,1.45667 2.0892,4.75023 -1.4883,5.20703 -0.6779,0.38112 -1.5757,0.63811 -2.6992,0.68555 -2.6855,0.1134 -5.3707,0.16236 -8.0567,0.0156 -0.6775,-0.0239 -1.3558,-0.0524 -2.0332,-0.082 v 18.59375 h 59.9883 V 762.8047 Z" /></clipPath><clipPath
       clipPathUnits="userSpaceOnUse"
       id="clipPath421"><path
         id="path422"
         style="fill:#ff0000;fill-opacity:1;fill-rule:nonzero;stroke:none"
         d="m 1476.8242,677.32227 v 88.48242 h 3.1192 c -0.059,-0.94573 -0.1243,-1.89101 -0.1797,-2.83594 -0.1827,-3.11115 1.3885,-4.69751 2.959,-4.62305 -9e-4,-0.015 0,-0.0299 0,-0.0449 -0.1709,-2.92819 1.2201,-4.49136 2.6972,-4.58984 0.4111,-0.0274 0.8262,0.0718 1.2188,0.27344 0.5019,-1.14946 1.443,-1.74353 2.4218,-1.69336 0.8189,0.042 1.6602,0.53328 2.2891,1.51953 0.3656,-0.17124 0.7445,-0.24974 1.1152,-0.23438 1.5767,0.0653 2.9948,1.78375 2.504,4.86133 -0.266,1.66654 -0.4475,3.34385 -0.6055,5.02344 0.2192,0.77604 0.4185,1.5578 0.6015,2.34375 h 63.6348 v -88.48242 z" /></clipPath><clipPath
       clipPathUnits="userSpaceOnUse"
       id="clipPath435"><path
         id="path436"
         style="fill:#ff0000;fill-opacity:1;fill-rule:nonzero;stroke:none"
         d="m 1443.3027,678.99805 v 68.36914 h 10.0078 c -0.028,-2.48446 0.068,-4.96376 0.2774,-7.44141 0.2317,-2.74008 1.6521,-4.08813 3.0449,-4.14453 0.7693,-0.0312 1.5283,0.33458 2.0762,1.07422 0.5166,-1.50296 1.5648,-2.26953 2.625,-2.26953 1.0853,0 2.1651,0.79493 2.668,2.36914 0.5316,-1.54851 1.5764,-2.32249 2.6191,-2.36524 1.5712,-0.0644 3.1395,1.532 2.9473,4.64258 -0.1671,2.70601 -0.077,5.42415 -0.041,8.13477 h 8.6211 v -68.36914 z" /></clipPath><clipPath
       clipPathUnits="userSpaceOnUse"
       id="clipPath454"><path
         id="path455"
         style="fill:#ff0000;fill-opacity:1;fill-rule:nonzero;stroke:none"
         d="m 1317.3906,661.54297 v 75.76758 h 62.0528 v -32.125 c -1.6985,-0.0132 -3.3964,-0.01 -5.0957,0 -3.2517,0.0187 -4.6969,-1.79314 -4.3438,-3.41797 -2.6317,-1.1079 -2.5391,-4.17811 0.6074,-5.19922 -3.2967,-1.17314 -3.2414,-4.53567 -0.1894,-5.38672 0.1089,-0.16255 0.2464,-0.32003 0.3906,-0.47656 -0.982,-1.48051 -0.1207,-3.72602 3.1953,-4.5332 1.7923,-0.43629 3.608,-0.71707 5.4356,-0.875 v -23.75391 z" /></clipPath><clipPath
       clipPathUnits="userSpaceOnUse"
       id="clipPath472"><path
         id="path473"
         style="fill:#ff0000;fill-opacity:1;fill-rule:nonzero;stroke:none"
         d="m 1317.5938,566.69922 v 96.86133 h 62.0546 v -36.5 c -1.3523,-0.0786 -2.7066,-0.12307 -4.0625,-0.0977 -3.103,0.0581 -4.565,-1.57448 -4.3847,-3.14062 -3.0533,-0.97584 -2.4872,-4.97148 2.205,-5.78907 0.3433,-0.0598 0.6829,-0.13535 1.0254,-0.19726 -1.4556,-0.13862 -2.9144,-0.24662 -4.3769,-0.31055 -5.6777,-0.24819 -5.4844,-5.8056 -0.1387,-5.91797 0.01,-2.2e-4 0.02,1.9e-4 0.029,0 0.055,-0.16683 0.1353,-0.33046 0.2285,-0.49219 -1.7286,-1.59933 -0.7019,-4.57925 3.3711,-4.9375 1.5641,-0.13756 3.1265,-0.19811 4.6895,-0.19921 0.4713,-3.4e-4 0.9426,0.006 1.414,0.0156 v -39.29492 z" /></clipPath><clipPath
       clipPathUnits="userSpaceOnUse"
       id="clipPath486"><path
         id="path487"
         style="fill:#ff0000;fill-opacity:1;fill-rule:nonzero;stroke:none"
         d="m 1317.5938,471.16211 v 98.53711 h 61.4609 v -39.01563 c -2.3421,0.0889 -4.6835,0.18514 -7.0254,0.2793 -5.0844,0.20443 -5.7513,-4.20718 -2.0156,-5.54883 -1.6571,-1.11871 -1.6619,-3.12809 -0.022,-4.26758 -1.125,-0.7911 -1.4843,-1.98758 -1.0469,-3.01757 -3.2587,-1.30027 -2.4481,-5.42803 2.4395,-5.53711 0.4405,-0.01 0.8821,-0.016 1.3222,-0.0195 2.12,-0.017 4.2349,0.0431 6.3477,0.17968 v -41.58984 z" /></clipPath><clipPath
       clipPathUnits="userSpaceOnUse"
       id="clipPath500"><path
         id="path501"
         style="fill:#ff0000;fill-opacity:1;fill-rule:nonzero;stroke:none"
         d="m 1317.2051,420.87891 v 53.2832 h 62.0527 v -19.73633 c -1.7817,-0.19376 -3.5734,-0.15914 -5.3594,0.0312 -5.1484,0.54882 -6.1332,-3.96746 -2.2851,-5.48047 -0.048,-0.0332 -0.1077,-0.059 -0.1524,-0.0937 -3.0361,-0.95149 -3.0574,-4.31834 0.377,-5.375 -1.7571,-1.55702 -0.7888,-4.5728 3.2734,-5.02929 1.1793,-0.13269 2.3628,-0.16974 3.5469,-0.17579 0.2,-10e-4 0.3998,0.002 0.5996,0.002 v -17.42578 z" /></clipPath><clipPath
       clipPathUnits="userSpaceOnUse"
       id="clipPath510"><path
         id="path511"
         style="fill:#ff0000;fill-opacity:1;fill-rule:nonzero;stroke:none"
         d="m 1317.3066,372.27148 v 51.60743 h 61.9512 v -17.08399 c -2.2593,-0.18526 -4.5196,-0.35169 -6.789,-0.27734 -4.9472,0.16204 -5.7198,-4.04286 -2.3184,-5.4668 -0.5544,-1.01955 -0.3156,-2.20048 0.6387,-3 -0.8416,-1.72732 0.5365,-3.97656 4.1523,-3.97656 h 4.3164 v -21.80274 z" /></clipPath><clipPath
       clipPathUnits="userSpaceOnUse"
       id="clipPath513"><path
         id="path513"
         style="fill:#ff0000;fill-opacity:1;fill-rule:nonzero;stroke:none"
         d="m 1329.752,342.10156 v 33.16992 h 48.6171 c -0.1692,-1.06305 -0.2955,-2.13568 -0.4492,-3.20507 -0.7441,-5.17927 3.41,-6.4312 5.2774,-2.5918 0.8244,-0.5895 1.899,-0.72622 3.4179,-0.3457 0.114,-0.3909 0.2463,-0.77689 0.4141,-1.14844 0.1833,-0.40616 0.4365,-0.77724 0.6543,-1.16602 1.0105,-1.00338 1.9913,-1.50218 2.9082,-1.51172 0.8685,-0.009 1.6791,0.42801 2.4004,1.28907 2.5222,-0.35814 4.2812,1.62957 5.8437,4.07226 0.4775,-0.43234 1.0249,-0.7464 1.6719,-0.89453 0.077,-0.27015 0.3178,-0.35271 0.8496,-0.0937 0.3157,-5.3e-4 0.6497,0.03 1.0098,0.10352 0.582,0.11894 1.0327,0.39554 1.4238,0.74023 0.6741,0.0443 1.5006,0.12602 2.5137,0.22266 0.081,-0.0918 0.1627,-0.18489 0.2519,-0.2793 0.6391,-0.73142 1.0029,-1.74357 1.7227,-2.4082 0.3178,-0.29346 0.6798,-0.53493 1.0195,-0.80274 1.2723,0.23737 2.6549,0.14014 3.8164,0.71094 1.0008,0.49186 1.1869,3.90546 1.2539,4.95703 0.076,0.78519 0.077,1.56913 0.041,2.35156 h 3.332 v -33.16992 z m 71.6054,27.57422 c -0.3017,5.1e-4 -0.584,0.0329 -0.8496,0.0937 -0.1308,0.45907 0.2035,1.45657 0.3692,2.24414 0.1815,-1.06686 0.6164,-1.45715 1.7109,-1.51953 -0.5188,-0.39915 -0.9268,-0.6705 -1.2305,-0.81836 z m -1.2695,3.0957 c 0.03,0.0448 0.061,0.0907 0.086,0.125 0.01,-0.0102 0.014,-0.0211 0.022,-0.0312 -0.029,-0.0303 -0.071,-0.0616 -0.1074,-0.0937 z m -12.8711,0.8086 c -0.1613,0.0187 -0.4664,0.0985 -0.047,0.13476 0.048,-0.0506 0.07,-0.0701 0.127,-0.1289 0.01,-0.0109 -0.026,-0.0121 -0.08,-0.006 z" /></clipPath><clipPath
       clipPathUnits="userSpaceOnUse"
       id="clipPath589"><path
         id="path590"
         style="fill:#ff0000;fill-opacity:1;fill-rule:nonzero;stroke:none"
         d="m 1414.9277,354.79883 v 63.52734 c 1.1251,-0.12937 2.2467,-0.20135 3.3692,-0.21094 1.1355,-0.01 2.2715,0.0427 3.4101,0.16016 0.3716,0.0664 0.7438,0.13272 1.1153,0.19922 3.009,0.53817 4.1447,2.414 3.7304,3.92187 0.9812,1.39516 0.4216,3.18817 -1.5058,3.88086 0.077,0.88523 -0.356,1.78456 -1.3184,2.38282 2.8592,0.446 3.8971,2.3963 3.1973,3.92382 0.522,1.7262 -0.9591,3.69803 -4.4141,3.49219 -0.6869,-0.0409 -1.3736,-0.0544 -2.0605,-0.0801 3.7126,0.63074 4.1851,3.88064 1.6426,5.22266 0.2596,0.0508 0.5193,0.10144 0.7792,0.15234 2.6052,0.51024 3.7326,1.97586 3.7247,3.32813 0.5349,0.0645 0.8099,0.0949 2.3847,0.26367 5.2022,0.55751 5.2325,5.27563 1.0469,5.85156 0.2267,1.66739 -1.3992,3.36989 -4.668,3.03711 -1.432,-0.14579 -2.8663,-0.26641 -4.2988,-0.40625 -0.6925,0.21708 -1.5462,0.29827 -2.5547,0.1836 -1.1098,-0.12615 -0.549,-0.0559 -1.6855,-0.21094 -0.6333,-0.10172 -1.2653,-0.21458 -1.8946,-0.33789 v 143.07617 c 1.3543,0.021 2.7087,0.0604 4.0625,0.11914 3.9401,0.17094 5.0529,2.8775 3.6192,4.57227 2.2855,1.52545 1.4803,4.64578 -2.2656,5.0332 0.6639,1.14684 0.2685,2.58557 -1.1719,3.45312 1.3721,0.0979 2.7427,0.23411 4.1093,0.39844 4.5918,0.55212 5.0645,4.29188 2.2286,5.51758 0.019,0.57112 -0.2476,1.08523 -0.6368,1.54102 0.031,0.0521 0.026,0.10921 0.053,0.1621 0.1028,0.21083 0.1738,0.43003 0.2109,0.6504 0.047,0.24611 0.037,0.4816 0,0.7246 -0.089,0.64982 -0.4467,1.2409 -1.0937,1.69336 -0.2142,0.15713 -0.4593,0.29822 -0.7344,0.41797 -0.048,0.0187 -0.073,0.053 -0.1231,0.0703 0.7477,1.67414 -0.5582,3.72443 -3.8027,3.80273 0.4594,0.0157 0.9193,0.0299 1.3789,0.0391 5.8653,0.11661 5.7379,6.05877 -0.1269,5.92578 -1.9072,-0.0432 -3.8149,-0.12421 -5.711,-0.31836 v 50.36329 h 172.2539 V 354.79883 Z" /></clipPath><clipPath
       clipPathUnits="userSpaceOnUse"
       id="clipPath602"><path
         id="path602"
         style="fill:#ff0000;fill-opacity:1;fill-rule:nonzero;stroke:none"
         d="m 1339.418,735.98633 v 95.18555 h 40.3144 v -1.69532 c -0.6943,0.23657 -1.4268,0.37152 -2.1719,0.47461 -0.3957,0.38089 -0.54,0.35324 -0.539,0.0644 -3.3408,0.35173 -2.8157,-1.34137 -2.4668,-5.47656 0.01,-0.12247 0.4889,-0.35512 0.9043,-0.54297 -0.1134,-0.30029 -0.2012,-0.61632 -0.2461,-0.95507 -0.104,-1.04595 -0.038,-2.05797 0.1562,-3.06836 -5e-4,-0.18726 0,-0.37301 -0.01,-0.56055 -0.029,-1.66442 -0.067,-3.33051 -0.1719,-4.99219 -0.055,-0.75652 -0.1345,-1.50955 -0.2129,-2.26367 -0.3239,-0.35844 -0.663,-0.70516 -0.9316,-1.10547 -0.8432,-1.25694 -0.6645,-3.2774 -0.7715,-4.71484 0.042,-2.22782 0.3534,-4.43764 0.6992,-6.63672 0.017,-0.10867 0.035,-0.2175 0.053,-0.32617 -0.071,-0.74424 -0.1166,-1.48695 -0.066,-2.20899 0.037,-0.52994 -0.2057,-1.29048 0.2422,-1.57617 0.1455,-0.0928 0.2971,-0.17317 0.4492,-0.25195 0.2923,-2.01712 0.5291,-4.04019 0.5645,-6.08203 0,-0.51496 0,-1.03003 0,-1.54493 -0.6551,-1.3589 -1.0751,-3.56942 -1.2149,-4.29492 -0.7112,-3.61408 -1.3462,-7.27529 -1.0371,-10.97461 0.1088,-1.09337 0.1807,-2.77526 0.6817,-3.78906 0.092,-0.18541 0.1893,-0.35547 0.289,-0.52148 -0.2181,-0.42404 -0.4315,-0.84993 -0.5683,-1.30469 -0.128,-0.4258 -0.073,-0.88557 -0.084,-1.33008 -0.053,-2.18276 0.2054,-4.3643 0.3398,-6.53906 0.034,-0.31639 0.1156,-1.15852 0.2227,-1.95313 0.095,-1.82374 0.3609,-3.91537 1.2617,-5.36914 -0.1575,-0.0993 -0.3206,-0.18961 -0.4726,-0.29883 -1.1446,-1.11376 -1.9911,-1.57286 -2.0821,-3.44336 -0.049,-1.01401 0.287,-1.83655 0.8301,-2.49414 0.1937,-0.25199 0.4896,-0.55137 0.9199,-1.01562 0.073,-0.0513 0.1494,-0.0962 0.2227,-0.14648 -5.0537,0.42158 -5.8225,-4.74756 -0.3633,-5.90821 1.8438,-0.39199 3.6956,-0.63636 5.5742,-0.64258 v -1.69726 z m 37.6035,94.02929 c 0.073,-0.008 0.1221,-0.002 0.1992,-0.0117 0.1144,-0.0146 0.2259,-0.037 0.3398,-0.0527 0.1669,-0.16059 0.3686,-0.37457 0.6329,-0.6914 0.3281,-0.3934 0.5524,-0.5534 0.6777,-0.70704 -0.4741,-0.24334 -0.9097,-0.52393 -1.3008,-0.8457 -0.2756,1.00711 -0.5474,1.90991 -0.5488,2.30859 z" /></clipPath></defs><g
     inkscape:label="Warstwa 1"
     inkscape:groupmode="layer"
     id="layer1"><rect
       style="fill:none;stroke:#000000;stroke-width:3.47383"
       id="rect1"
       width="168.78085"
       height="322.05002"
       x="1416.6647"
       y="356.53561"
       clip-path="url(#clipPath589)" /><rect
       style="fill:none;stroke:#000000;stroke-width:3.0198"
       id="rect2"
       width="84.970634"
       height="30.150093"
       x="1331.2614"
       y="343.61145"
       clip-path="url(#clipPath513)" /><rect
       style="fill:none;stroke:#000000;stroke-width:2.89204"
       id="rect3"
       width="59.059212"
       height="48.715004"
       x="1318.7531"
       y="373.71741"
       clip-path="url(#clipPath510)" /><rect
       style="fill:none;stroke:#000000;stroke-width:2.93117"
       id="rect4"
       width="59.121758"
       height="50.351982"
       x="1318.671"
       y="422.34406"
       clip-path="url(#clipPath500)" /><rect
       style="fill:none;stroke:#000000;stroke-width:2.9161"
       id="rect5"
       width="58.544228"
       height="95.62188"
       x="1319.0526"
       y="472.61963"
       clip-path="url(#clipPath486)" /><rect
       style="fill:none;stroke:#000000;stroke-width:2.93027"
       id="rect6"
       width="59.12265"
       height="93.931602"
       x="1319.0597"
       y="568.16473"
       clip-path="url(#clipPath472)" /><rect
       style="fill:none;stroke:#000000;stroke-width:2.97736"
       id="rect7"
       width="59.075558"
       height="72.789406"
       x="1318.88"
       y="663.03198"
       clip-path="url(#clipPath454)" /><rect
       style="fill:none;stroke:#000000;stroke-width:3"
       id="rect8"
       width="31.845995"
       height="65.368095"
       x="1444.8025"
       y="680.4986"
       clip-path="url(#clipPath435)" /><rect
       style="fill:none;stroke:#000000;stroke-width:3"
       id="rect9"
       width="78.776932"
       height="85.481354"
       x="1478.3246"
       y="678.82251"
       clip-path="url(#clipPath421)" /><rect
       style="fill:none;stroke:#000000;stroke-width:3"
       id="rect10"
       width="56.987568"
       height="53.635357"
       x="1496.7617"
       y="764.30383"
       clip-path="url(#clipPath400)" /><rect
       style="fill:none;stroke:#000000;stroke-width:3;stroke-dasharray:none"
       id="rect12"
       width="108.79337"
       height="46.283569"
       x="1445.3207"
       y="818.0683"
       clip-path="url(#clipPath382)" /><rect
       style="fill:none;stroke:#000000;stroke-width:2.99628"
       id="rect13"
       width="54.333347"
       height="73.548996"
       x="1444.8005"
       y="865.07166"
       clip-path="url(#clipPath365)" /><rect
       style="fill:none;stroke:#000000;stroke-width:2.96127"
       id="rect14"
       width="211.92223"
       height="138.85042"
       x="1500.0945"
       y="865.15582"
       clip-path="url(#clipPath368)" /><rect
       style="fill:none;stroke:#000000;stroke-width:2.95432"
       id="rect15"
       width="78.822609"
       height="147.83049"
       x="1712.9564"
       y="864.55975"
       clip-path="url(#clipPath315)" /><rect
       style="fill:none;stroke:#000000;stroke-width:2.48511"
       id="rect16"
       width="79.291817"
       height="34.036987"
       x="1712.7217"
       y="1012.1099"
       clip-path="url(#clipPath318)" /><rect
       style="fill:none;stroke:#000000;stroke-width:3.71725;stroke-dasharray:none"
       id="rect22"
       width="259.4863"
       height="111.98904"
       x="1532.953"
       y="1045.2062"
       clip-path="url(#clipPath271)" /><rect
       style="fill:none;stroke:#000000;stroke-width:3.04325"
       id="rect23"
       width="33.478848"
       height="112.25578"
       x="1498.4595"
       y="1044.235" /><rect
       style="fill:none;stroke:#000000;stroke-width:2.97358"
       id="rect24"
       width="83.053177"
       height="55.032867"
       x="1315.7292"
       y="994.22198"
       clip-path="url(#clipPath205)" /><rect
       style="fill:none;stroke:#000000;stroke-width:3.001"
       id="rect25"
       width="83.415001"
       height="114.85432"
       x="1316.1322"
       y="1050.0382"
       clip-path="url(#clipPath261)" /><rect
       style="fill:none;stroke:#000000;stroke-width:2.47747"
       id="rect26"
       width="98.921814"
       height="31.453476"
       x="1399.7773"
       y="1157.9272" /><rect
       style="fill:none;stroke:#000000;stroke-width:3.08394"
       id="rect27"
       width="132.32835"
       height="117.2434"
       x="533.0434"
       y="833.06616"
       clip-path="url(#clipPath184)" /><rect
       style="fill:none;stroke:#000000;stroke-width:3.03665"
       id="rect28"
       width="85.444695"
       height="115.61458"
       x="665.43201"
       y="833.04248"
       clip-path="url(#clipPath145)" /><rect
       style="fill:none;stroke:#000000;stroke-width:3.06212"
       id="rect29"
       width="134.02628"
       height="115.58911"
       x="750.92609"
       y="833.05524"
       clip-path="url(#clipPath115)" /><rect
       style="fill:none;stroke:#000000;stroke-width:3"
       id="rect30"
       width="229.62637"
       height="117.32735"
       x="883.30731"
       y="831.34808"
       clip-path="url(#clipPath93)" /><rect
       style="fill:none;stroke:#000000;stroke-width:3.04273"
       id="rect31"
       width="125.66515"
       height="117.28463"
       x="1114.6311"
       y="831.36945"
       clip-path="url(#clipPath67)" /><rect
       style="fill:none;stroke:#000000;stroke-width:3.08752"
       id="rect32"
       width="150.76192"
       height="117.23981"
       x="1240.3613"
       y="831.39185"
       clip-path="url(#clipPath75)" /><rect
       style="fill:none;stroke:#000000;stroke-width:2.24209"
       id="rect33"
       width="38.070808"
       height="92.943687"
       x="1340.5399"
       y="737.10724"
       clip-path="url(#clipPath602)" /><rect
       style="fill:none;stroke:#000000;stroke-width:3.08328"
       id="rect34"
       width="45.171551"
       height="150.76616"
       x="618.52435"
       y="950.39319"
       clip-path="url(#clipPath187)" /><rect
       style="fill:none;stroke:#000000;stroke-width:2.18078"
       id="rect35"
       width="651.14789"
       height="1.8010833"
       x="665.00409"
       y="993.52063" /></g></svg>
