<?xml version="1.0" encoding="UTF-8" standalone="no"?>
<!-- Created with Inkscape (http://www.inkscape.org/) -->

<svg
   width="2560"
   height="1440"
   viewBox="0 0 2560 1440"
   version="1.1"
   id="svg1"
   xml:space="preserve"
   inkscape:version="1.4 (86a8ad7, 2024-10-11)"
   sodipodi:docname="1pietro.svg"
   xmlns:inkscape="http://www.inkscape.org/namespaces/inkscape"
   xmlns:sodipodi="http://sodipodi.sourceforge.net/DTD/sodipodi-0.dtd"
   xmlns="http://www.w3.org/2000/svg"
   xmlns:svg="http://www.w3.org/2000/svg"><sodipodi:namedview
     id="namedview1"
     pagecolor="#ffffff"
     bordercolor="#000000"
     borderopacity="0.25"
     inkscape:showpageshadow="2"
     inkscape:pageopacity="0.0"
     inkscape:pagecheckerboard="0"
     inkscape:deskcolor="#d1d1d1"
     inkscape:document-units="px"
     inkscape:zoom="1.1932427"
     inkscape:cx="1380.2724"
     inkscape:cy="837.63346"
     inkscape:window-width="2560"
     inkscape:window-height="1417"
     inkscape:window-x="-8"
     inkscape:window-y="-8"
     inkscape:window-maximized="1"
     inkscape:current-layer="layer1" /><defs
     id="defs1"><clipPath
       clipPathUnits="userSpaceOnUse"
       id="clipPath75"><path
         id="path76"
         style="fill:#ff0000;fill-opacity:1;fill-rule:nonzero;stroke:none"
         d="m 1404.1289,895.68555 v 45.81054 h 64.6309 v -1.38671 c -0.066,0.28237 -0.4319,-0.009 -1.2578,-1.20118 -0.175,-0.25237 -0.348,-0.47559 -0.5215,-0.70703 -0.5677,-0.16639 -1.1349,-0.33278 -1.7051,-0.48828 -0.4638,-0.0279 -0.9257,-0.07 -1.3867,-0.13477 -0.023,-0.084 -0.047,-0.15213 -0.07,-0.23437 -0.607,-0.1388 -1.218,-0.2581 -1.836,-0.3457 -6.5777,-0.93243 -7.4198,-6.28131 -3.2597,-7.92774 -1.2609,-0.65737 -2.3729,-1.61054 -2.295,-3.00586 0.2477,-4.43345 1.0959,-4.26946 3.709,-5.33789 0.2737,-0.0474 0.5463,-0.0974 0.8203,-0.14258 0.4553,-0.8847 1.0282,-1.73455 1.7266,-2.4121 -1.1247,-0.66868 -2.1709,-1.46319 -3.1113,-2.42188 -2.0723,-2.12747 -3.7122,-4.5297 -3.3594,-7.64258 0.1781,-0.63464 0.1538,-1.36529 0.5332,-1.9043 0.4645,-0.65985 0.9408,-1.16184 1.4258,-1.55468 -1.034,-2.09791 0.2516,-4.63695 3.8672,-5.26953 0.01,-0.006 0.019,-0.01 0.027,-0.0156 1.1697,-0.8362 2.5147,-1.16132 3.9004,-1.41406 0.404,-0.0554 0.7945,-0.0757 1.1719,-0.0644 0.5694,0.0169 1.1089,0.10792 1.6211,0.25976 v -2.45898 z m 55.8906,15.98633 c -0.015,0.0157 0.181,0.1675 0.2676,0.17187 0.064,0.004 0.1319,0.0101 0.1973,0.0156 -0.1616,-0.0711 -0.3251,-0.14398 -0.4434,-0.18555 -0.012,-0.004 -0.019,-0.004 -0.021,-0.002 z m 3.2227,8.4414 c -0.1391,0.0335 -0.2567,0.0845 -0.3574,0.14844 0.3002,-0.0637 0.4845,-0.11865 0.3574,-0.14844 z m -0.6543,1.54883 c -0.021,-0.0102 0.029,0.0363 0.043,0.0547 0.055,0.0203 0.1107,0.0403 0.166,0.0605 -0.071,-0.0382 -0.1325,-0.0783 -0.209,-0.11523 z m 5.8691,16.96484 c 0.166,0.53843 0.279,0.98111 0.3028,1.25391 v -1.16992 c -0.101,-0.028 -0.2019,-0.0555 -0.3028,-0.084 z m -0.5761,0.006 c -0.052,0.018 -0.1033,0.035 -0.1543,0.0547 -0.035,0.0136 0.078,-0.008 0.1093,-0.0293 0.013,-0.009 0.031,-0.0166 0.045,-0.0254 z" /></clipPath><clipPath
       clipPathUnits="userSpaceOnUse"
       id="clipPath85"><path
         id="path86"
         style="fill:#ff0000;fill-opacity:1;fill-rule:nonzero;stroke:none"
         d="m 836.42578,867.24023 v 103.74219 h 38.55664 v -75.0664 c -0.76504,0.30403 -1.67239,0.51938 -2.72656,0.60937 -0.39297,0.0335 -0.78672,0.068 -1.17969,0.10156 -2.66957,0.22788 -4.5551,-0.4878 -5.60742,-1.58593 h -0.56445 c -6.9039,0 -8.04156,-5.79015 -3.45508,-7.73829 0.41873,-0.8916 1.23361,-1.73128 2.46875,-2.36523 -0.0205,-0.0218 -0.0348,-0.0463 -0.0547,-0.0684 -4.15832,-0.64055 -5.04745,-5.16252 -0.31055,-7.66016 -0.19788,-0.13937 -0.37425,-0.29171 -0.53515,-0.45117 -0.78588,0.44525 -1.64066,0.7963 -2.42188,1.24805 -0.78721,-0.21847 -1.61857,-0.32413 -2.39062,-0.58203 -1.43211,-0.0429 -2.35067,-0.85299 -2.96094,-1.92578 -3.9942,0.84065 -4.47812,0.0845 -5.39062,-3.99024 -0.20528,-1.4185 -0.41283,-2.84144 -0.58008,-4.26758 z m 29.72852,0 c -0.003,0.0725 -0.002,0.1701 -0.006,0.23438 -0.057,0.63355 -0.14081,1.64888 -0.27149,2.75391 0.57828,-0.1752 1.21655,-0.31003 1.92774,-0.38477 1.12314,-0.11804 2.25046,-0.15802 3.3789,-0.16211 1.12844,-0.004 2.25791,0.0268 3.38477,0.0508 0.14057,0.003 0.27836,0.008 0.41406,0.0156 v -2.50782 z" /></clipPath><clipPath
       clipPathUnits="userSpaceOnUse"
       id="clipPath87"><path
         id="path87"
         style="fill:#ff0000;fill-opacity:1;fill-rule:nonzero;stroke:none"
         d="m 772.86133,798.00195 v 71.72071 h 76.73828 c -0.38348,-2.70948 -0.71555,-5.43219 -0.65234,-8.17188 0.0957,-4.14704 2.24146,-6.22073 4.33789,-6.2207 1.20636,2e-5 2.3941,0.69126 3.16796,2.06445 0.96197,0.38829 2.42814,1.06308 4.76758,1.94531 1.51586,-0.55344 2.02357,-0.52694 2.24414,0.31055 2.54838,0.57626 2.79158,5.97302 2.6836,7.82422 -0.0482,0.53559 -0.11534,1.34566 -0.21289,2.24805 h 14.68164 v -71.72071 z" /></clipPath><clipPath
       clipPathUnits="userSpaceOnUse"
       id="clipPath104"><path
         id="path105"
         style="fill:#ff0000;fill-opacity:1;fill-rule:nonzero;stroke:none"
         d="m 877.61719,798.00195 v 71.72071 h 51.58593 c -0.16711,-0.59307 -0.28573,-1.25413 -0.34374,-1.98633 -0.1378,-1.73932 -0.0681,-0.89799 -0.20704,-2.52539 -0.36383,-4.26228 1.67895,-6.52958 3.83985,-6.5918 0.38119,-0.011 0.76661,0.0465 1.14258,0.17383 1.65167,-1.66617 4.10009,-1.26972 5.5332,1.17773 0.22567,-0.15544 0.45731,-0.30574 0.70117,-0.44726 0.5741,-0.002 1.16157,-0.0818 1.74414,-0.13672 0.16176,-2.05205 0.26252,-2.99968 1.75586,-2.95703 1.18471,0.0338 3.24943,0.66111 6.92188,1.77929 0.0476,0.0145 0.69231,3.90864 0.69531,3.92774 0.29938,2.3988 0.96097,5.094 0.60156,7.58594 h 33.78516 v -71.72071 z" /></clipPath><clipPath
       clipPathUnits="userSpaceOnUse"
       id="clipPath142"><path
         id="path143"
         style="fill:#ff0000;fill-opacity:1;fill-rule:nonzero;stroke:none"
         d="m 983.16211,798.5918 v 71.71875 h 44.27149 c -0.1685,-1.30256 -0.3674,-2.6003 -0.6074,-3.89258 -0.8286,-4.46073 1.2636,-6.92982 3.5761,-6.91797 0.2937,0.002 0.5896,0.0581 0.8848,0.14062 0.6642,-1.72212 2.0077,-2.62195 3.418,-2.59374 0.7389,0.0148 1.493,0.2917 2.1797,0.83007 0.7421,-1.14077 1.8115,-1.74188 2.9082,-1.77343 1.7642,-0.0508 3.5981,1.37415 4.2597,4.3789 0.029,-0.0851 0.056,-0.1709 0.086,-0.25586 1.108,-3.18302 3.0787,-4.63582 4.8457,-4.71289 2.5824,-0.11264 4.7276,2.71282 3.1035,7.36328 -0.8517,2.43868 -1.5526,4.92753 -2.1836,7.4336 h 39.3379 V 798.5918 Z" /></clipPath><clipPath
       clipPathUnits="userSpaceOnUse"
       id="clipPath180"><path
         id="path181"
         style="fill:#ff0000;fill-opacity:1;fill-rule:nonzero;stroke:none"
         d="m 1087,799.64844 v 70.04297 h 37.9766 c -0.2641,-2.77254 -0.5206,-5.54668 -0.9356,-8.30079 -0.6566,-4.3582 1.3481,-6.82201 3.5645,-6.94531 1.6499,-0.0918 3.4075,1.13066 4.2832,3.81641 0.4504,-0.26447 0.9425,-0.41491 1.4492,-0.44336 1.4105,-0.0792 2.9176,0.7962 3.9121,2.70117 0.1872,-3.50361 2.0557,-5.25975 3.9824,-5.25976 1.5125,-3e-5 3.046,1.09683 3.8379,3.25585 0.728,-1.06602 1.7634,-1.63235 2.834,-1.64257 1.8809,-0.018 3.8689,1.67785 4.4824,5.38672 0.4058,2.45356 0.5202,4.94363 0.586,7.43164 h 39.2695 v -70.04297 z" /></clipPath><clipPath
       clipPathUnits="userSpaceOnUse"
       id="clipPath228"><path
         id="path229"
         style="fill:#ff0000;fill-opacity:1;fill-rule:nonzero;stroke:none"
         d="m 1190.5625,799.16211 v 71.7207 h 43.5469 c -0.4184,-2.31862 -0.8005,-4.64449 -1.1211,-6.97851 -0.5997,-4.36642 1.4436,-6.83532 3.6621,-6.95899 1.3245,-0.0738 2.6996,0.71067 3.623,2.4043 0.8035,-1.6104 2.1108,-2.41601 3.4161,-2.41602 0.6025,0 1.2042,0.17252 1.7558,0.51563 0.6991,-0.69791 1.5173,-1.08358 2.3438,-1.12695 0.8981,-0.0471 1.7876,0.30609 2.5214,1.00976 0.3988,-0.18337 0.823,-0.28178 1.2559,-0.29101 1.3378,-0.0286 2.7509,0.78107 3.7012,2.4746 0.6961,-0.51 1.4608,-0.75001 2.2031,-0.72851 2.2317,0.0646 4.2592,2.46781 3.6035,6.82617 -0.2631,1.7489 -0.4458,3.509 -0.6113,5.26953 h 42.8848 v -71.7207 z" /></clipPath><clipPath
       clipPathUnits="userSpaceOnUse"
       id="clipPath266"><path
         id="path267"
         style="fill:#ff0000;fill-opacity:1;fill-rule:nonzero;stroke:none"
         d="m 1300.834,798.83984 v 70.88282 h 37.164 c -0.086,-0.44509 -0.1461,-0.92373 -0.1757,-1.43555 -0.1315,-2.26707 -0.3119,-4.5364 -0.2911,-6.80859 0.038,-4.14798 2.1512,-6.22266 4.2461,-6.22266 1.4866,0 2.9484,1.06574 3.668,3.1543 1.039,-2.60107 2.8138,-3.85211 4.4395,-3.92578 0.3337,-0.0151 0.6572,0.0309 0.9707,0.11328 0.7961,-1.64859 2.1164,-2.47461 3.4375,-2.47461 1.0722,0 2.1404,0.55072 2.9316,1.63672 0.6025,-1.64557 1.8305,-2.55945 3.166,-2.63477 1.9697,-0.11109 4.1619,1.59112 4.875,5.41406 0.5477,2.93554 0.8798,5.90208 1.1387,8.875 0.1271,1.43386 0.1405,2.87079 0.1055,4.3086 h 49.623 v -70.88282 z" /></clipPath><clipPath
       clipPathUnits="userSpaceOnUse"
       id="clipPath308"><path
         id="path309"
         style="fill:#ff0000;fill-opacity:1;fill-rule:nonzero;stroke:none"
         d="m 773.61133,798.5 v 71.74023 h 76.06055 c -0.41387,-2.88022 -0.79185,-5.77523 -0.72461,-8.68945 0.0957,-4.14704 2.24146,-6.22073 4.33789,-6.2207 1.20636,2e-5 2.39411,0.69126 3.16796,2.06445 0.96197,0.38829 2.42814,1.06308 4.76758,1.94531 1.51586,-0.55344 2.02357,-0.52694 2.24414,0.31055 2.54838,0.57626 2.79158,5.97302 2.6836,7.82422 -0.0572,0.63583 -0.14192,1.65589 -0.27344,2.76562 h 63.49219 c -0.25443,-0.71779 -0.4323,-1.55084 -0.50781,-2.5039 -0.1378,-1.73932 -0.0681,-0.89799 -0.20704,-2.52539 -0.36383,-4.26228 1.67895,-6.52958 3.83985,-6.5918 0.38199,-0.011 0.76782,0.0479 1.14453,0.17578 1.65168,-1.66607 4.09816,-1.27163 5.53125,1.17578 0.22567,-0.15544 0.45731,-0.30574 0.70117,-0.44726 0.5741,-0.002 1.16157,-0.0818 1.74414,-0.13672 0.16176,-2.05205 0.26252,-2.99968 1.75586,-2.95703 1.18471,0.0338 3.24943,0.66111 6.92188,1.77929 0.0476,0.0145 0.69231,3.90864 0.69531,3.92774 0.32021,2.56567 1.05571,5.47114 0.51172,8.10351 h 75.92575 c -0.1665,-1.27893 -0.3619,-2.55328 -0.5976,-3.82226 -0.8286,-4.46073 1.2636,-6.92982 3.5761,-6.91797 0.287,10e-4 0.5747,0.12038 0.8633,0.19922 0.656,-1.76042 2.0133,-2.68086 3.4395,-2.65234 0.7317,0.0146 1.4593,0.36269 2.1406,0.89062 0.7434,-1.18023 1.8313,-1.80188 2.9473,-1.83398 1.778,-0.0512 3.5568,1.48972 4.205,4.54296 0.048,-0.13968 0.092,-0.28052 0.1407,-0.41992 1.108,-3.18302 3.0787,-4.63582 4.8457,-4.71289 2.5824,-0.11264 4.7276,2.71282 3.1035,7.36328 -0.8437,2.41588 -1.5396,4.88098 -2.166,7.36328 h 75.1074 c -0.2835,-2.95524 -0.5459,-5.91372 -0.9883,-8.84961 -0.6566,-4.3582 1.3481,-6.82201 3.5645,-6.94531 1.6422,-0.0914 3.3467,1.19175 4.2265,3.85157 0.4659,-0.28603 0.9776,-0.44886 1.5059,-0.47852 1.4138,-0.0794 2.9158,0.82212 3.9101,2.73633 0.1764,-3.52746 2.0512,-5.29491 3.9844,-5.29492 1.5124,-3e-5 3.0323,1.11867 3.8242,3.27734 0.7287,-1.0795 1.7702,-1.65377 2.8477,-1.66406 1.8809,-0.018 3.8689,1.67785 4.4824,5.38672 0.4357,2.63411 0.5356,5.3099 0.5996,7.98046 h 81.0078 c -0.3732,-2.10562 -0.7148,-4.21745 -1.0058,-6.33593 -0.5997,-4.36642 1.4436,-6.83532 3.6621,-6.95899 1.3241,-0.0738 2.6722,0.76641 3.5957,2.45899 0.8009,-1.64695 2.1234,-2.4707 3.4434,-2.47071 0.6203,0 1.2399,0.18322 1.8046,0.54688 0.693,-0.67956 1.4797,-1.11542 2.295,-1.1582 0.8782,-0.0461 1.7128,0.37684 2.4375,1.04882 0.4228,-0.20931 0.8764,-0.32019 1.3398,-0.33007 1.3569,-0.029 2.7899,0.80562 3.7402,2.54882 0.6917,-0.50151 1.4278,-0.82406 2.1641,-0.80273 2.2317,0.0646 4.2592,2.46781 3.6035,6.82617 -0.2311,1.53605 -0.3988,3.08111 -0.5488,4.62695 h 77.5898 c -0.1489,-0.58616 -0.2514,-1.23622 -0.2929,-1.95312 -0.1315,-2.26707 -0.3119,-4.5364 -0.2911,-6.80859 0.038,-4.14798 2.1512,-6.22266 4.2461,-6.22266 1.4887,0 2.934,1.09875 3.6524,3.19336 1.0367,-2.62817 2.8211,-3.89078 4.4551,-3.96484 0.3282,-0.0149 0.617,0.13533 0.9257,0.21484 0.7906,-1.7145 2.1353,-2.57617 3.4825,-2.57617 1.0729,0 2.1364,0.56092 2.9277,1.64843 0.6009,-1.65293 1.8312,-2.57098 3.1699,-2.64648 1.9697,-0.11109 4.1619,1.59112 4.875,5.41406 0.5477,2.93554 0.8798,5.90208 1.1387,8.875 0.1424,1.60594 0.1405,3.21579 0.09,4.82617 h 91.6426 c 0,-0.13189 -3e-4,-0.26033 0.01,-0.39648 0.097,-1.80958 0.066,-0.83342 0.066,-2.92773 v -11.15821 c 0,-4.14815 2.0963,-6.22265 4.1914,-6.22265 2.0952,0 4.1895,2.0745 4.1895,6.22265 v 0.81836 c 0.2642,-0.28326 0.5475,-0.51571 0.8437,-0.70117 6e-4,-0.0873 -0.01,-0.17441 -0.01,-0.26172 0.041,-4.14794 2.157,-6.22263 4.252,-6.22266 2.0951,10e-6 4.1699,2.07471 4.1289,6.22266 0,0.40726 0.037,0.81357 0.039,1.2207 0.5497,-0.3555 1.1401,-0.54858 1.7265,-0.57617 0.2262,-0.0106 0.4359,0.10709 0.6582,0.14453 0.8478,-1.78064 2.2052,-2.67798 3.5391,-2.73242 2.2269,-0.0909 4.3884,2.1618 4.0078,6.55274 -0.2753,3.17441 -0.3351,6.36418 -0.6191,9.53711 -0.016,0.16042 -0.036,0.32017 -0.053,0.48046 h 36.4356 V 798.5 Z" /></clipPath><clipPath
       clipPathUnits="userSpaceOnUse"
       id="clipPath311"><path
         id="path312"
         style="fill:#ff0000;fill-opacity:1;fill-rule:nonzero;stroke:none"
         d="m 870.79688,867.24023 v 2.44532 c 0.12896,-0.001 0.25771,-0.003 0.38671,-0.004 1.12844,-0.004 2.25791,0.0268 3.38477,0.0508 4.90348,0.10414 6.84397,3.0757 5.89844,5.45117 4.30126,1.59102 4.16073,6.25934 -0.41016,7.50586 -0.0494,0.19467 0.002,0.39462 -0.084,0.58399 2.26797,0.81108 3.29763,2.5471 3.0625,4.1914 4.28673,2.05092 3.1406,7.57618 -3.63282,7.57618 h -2.86718 c -0.96821,0.76177 -2.38814,1.32294 -4.2793,1.48437 -0.39297,0.0335 -0.78672,0.068 -1.17969,0.10156 -0.0942,0.008 -0.18702,0.0138 -0.27929,0.0195 v 2.03907 h 597.47074 v -5.36133 c 0,-4.14815 2.0962,-6.22266 4.1914,-6.22266 0.827,0 1.6535,0.32422 2.3515,0.97071 1.7033,0.31633 3.2581,1.98231 3.4825,5.14648 1.1264,-0.28511 2.3438,-0.2041 3.459,-0.53711 0.081,-0.0198 0.7317,-0.10395 0.8769,-0.18555 0.7945,-0.44664 1.3276,-1.33551 2.2402,-1.60351 3.475,-1.31985 5.9305,-0.97696 8.4864,1.74219 1.4901,-0.0524 2.9821,-0.0696 4.4726,-0.084 0.1166,-9.1e-4 0.2331,6e-4 0.3496,-0.002 0.8717,-0.19693 1.8979,-0.24625 3.0821,-0.082 0.6726,0.0927 0.2583,0.0528 1.2441,0.0508 1.7443,-0.005 3.4882,-0.0119 5.2324,-0.0371 0.8488,-0.0141 1.6965,-0.062 2.5449,-0.0898 0.3624,-2.97455 2.1494,-4.49596 3.9825,-4.43554 1.9703,0.0649 3.9922,1.95516 4.3437,5.82812 0.1482,1.63212 0.2695,3.26673 0.3731,4.90235 h 2.9082 v -31.44532 h -36.543 c -0.052,0.84047 -0.1105,1.68083 -0.1855,2.51954 -0.2597,2.67586 -0.6551,5.33291 -1.0293,7.99414 -0.9161,6.51506 -6.32,7.12411 -7.9434,3.00195 -1.9241,-0.003 -3.7631,-1.72498 -3.9082,-5.04883 -1.2325,6.51111 -7.7629,6.17995 -8.1523,-0.18164 -2.583,1.81827 -6.2834,-0.0987 -5.9825,-5.68164 0.087,-1.62277 0.071,-1.23794 0.066,-2.60352 h -91.705 c 0.072,2.41437 -0.094,4.83526 -0.209,7.2461 -0.3505,7.30786 -6.8995,7.85445 -8.1699,2.19922 -1.3542,4.79113 -6.3743,4.79644 -7.7012,-0.0312 -2.1409,4.16246 -7.2039,3.13708 -7.4473,-2.5918 -2.2533,0.59401 -4.8918,-1.21468 -5.1562,-5.77539 -0.02,-0.3488 -0.043,-0.69797 -0.064,-1.04688 h -76.9062 c -0.2257,1.80129 -0.3883,3.61034 -0.5528,5.41797 -0.6408,7.04496 -6.7626,7.47753 -8.0976,2.34571 -0.2353,-0.0609 -0.4674,-0.14934 -0.6953,-0.26368 -0.02,0.76252 -0.051,1.52452 -0.07,2.28711 -0.1707,6.68991 -5.6546,7.84183 -7.6582,3.68555 -1.1556,4.59159 -6.7828,4.57561 -8.1464,-2.04883 -0.781,-3.79384 -1.5314,-7.59847 -2.1446,-11.42383 h -80.5976 c 0.089,1.76633 0.112,3.53741 0.1562,5.30079 0.1937,7.7314 -7.0747,8.43581 -8.2285,1.77734 -0.9994,4.2508 -4.1931,5.40798 -6.2852,3.80078 -1.5967,2.9962 -5.2064,2.93059 -6.8203,-0.52148 -2.3036,1.73793 -5.8964,0.23507 -6.4492,-5.04688 -0.1851,-1.76846 -0.3468,-3.54057 -0.5215,-5.31055 h -74.0136 c -0.6067,2.14509 -1.1432,4.31214 -1.6446,6.48243 -0.1125,0.53762 -0.2254,1.07566 -0.3379,1.61328 -1.6985,8.12055 -9.9042,6.39808 -8.1972,-1.72071 0.1249,-0.59401 0.2502,-1.18725 0.375,-1.78125 0.046,-0.19744 0.092,-0.3944 0.1386,-0.59179 -0.3354,0.0583 -0.672,0.12523 -1.0117,0.0742 -0.4716,2.61739 -2.1571,3.96812 -3.9043,3.87304 -0.4982,6.54545 -7.5735,6.70042 -8.2793,-0.92187 -0.2177,-2.35186 -0.488,-4.69919 -0.8886,-7.02735 h -75.3106 c 0.10144,1.6274 -0.0239,3.23914 -0.73243,4.70704 -0.31301,0.64844 -0.79816,1.19757 -1.19726,1.79687 -1.01018,0.49985 -1.91024,1.4037 -3.03321,1.5 -0.55362,0.0475 -1.06151,0.0145 -1.5371,-0.0801 -0.2446,0.13232 -0.50451,0.24275 -0.78907,0.31641 -1.06589,0.27589 -1.9894,0.29812 -2.80078,0.11133 -3.44558,2.94976 -6.21241,2.359 -8.41601,-1.46289 -0.0553,-0.17223 -0.0742,-0.35046 -0.125,-0.52344 -1.93555,-0.14857 -3.87013,-2.06024 -4.17188,-5.86914 -0.0271,-0.3417 -0.0268,-0.31531 -0.041,-0.4961 z m 644.58792,24.7793 c 0.017,-0.005 -0.054,-10e-4 -0.1426,0.006 7e-4,0.005 0,0.009 0,0.0137 0.031,-0.005 0.136,-0.0178 0.1426,-0.0195 z" /></clipPath><clipPath
       clipPathUnits="userSpaceOnUse"
       id="clipPath314"><path
         id="path315"
         style="fill:#ff0000;fill-opacity:1;fill-rule:nonzero;stroke:none"
         d="m 1413.1328,799.67773 v 70.04493 h 45.0176 c 0.082,-1.50262 0.061,-0.80573 0.061,-2.80664 v -11.15821 c 0,-4.14815 2.0963,-6.22265 4.1914,-6.22265 2.0952,0 4.1895,2.0745 4.1895,6.22265 v 0.82031 c 0.263,-0.28224 0.5451,-0.51392 0.8398,-0.69921 6e-4,-0.0886 0,-0.17707 0,-0.26563 0.041,-4.14794 2.157,-6.22262 4.252,-6.22266 2.0951,10e-6 4.1699,2.07471 4.1289,6.22266 0,0.41234 0.01,0.82411 0.01,1.23633 0.5568,-0.3661 1.1566,-0.56379 1.7519,-0.5918 0.2366,-0.0111 0.4709,0.0191 0.7031,0.0606 0.8503,-1.72279 2.1822,-2.5949 3.4942,-2.64844 2.2269,-0.0909 4.3884,2.1618 4.0078,6.55274 -0.2742,3.16202 -0.3341,6.33931 -0.6152,9.5 h 35.7265 v -70.04493 z" /></clipPath><clipPath
       clipPathUnits="userSpaceOnUse"
       id="clipPath338"><path
         id="path339"
         style="fill:#ff0000;fill-opacity:1;fill-rule:nonzero;stroke:none"
         d="m 1518.7266,828.17188 v 70.88281 h 58.5644 c -0.3204,-2.30711 -0.5984,-4.6205 -0.8301,-6.93946 -0.438,-4.38558 1.711,-6.6218 3.9473,-6.51757 1.5327,0.0715 3.0967,1.25754 3.9082,3.58984 0.7226,-2.36097 2.323,-3.54298 3.9043,-3.54297 1.1657,10e-6 2.3063,0.66594 3.0879,1.94922 0.7701,-0.86925 1.7576,-1.2943 2.7461,-1.25391 1.1889,0.0486 2.3708,0.77896 3.1777,2.20118 0.013,-0.17311 0.024,-0.34646 0.037,-0.51954 0.3041,-3.87698 2.2993,-5.78341 4.2676,-5.86328 2.2308,-0.0905 4.4267,2.16453 4.084,6.5586 -0.25,3.20418 -0.4143,6.41346 -0.5313,9.625 -0.01,0.23768 -0.017,0.47531 -0.025,0.71289 h 40.6953 v -70.88281 z" /></clipPath><clipPath
       clipPathUnits="userSpaceOnUse"
       id="clipPath354"><path
         id="path355"
         style="fill:#ff0000;fill-opacity:1;fill-rule:nonzero;stroke:none"
         d="m 1519.0918,828.12891 v 71.1914 h 58.2363 c -0.3362,-2.39521 -0.6266,-4.79709 -0.8672,-7.20508 -0.438,-4.38558 1.711,-6.6218 3.9473,-6.51757 1.5327,0.0715 3.0967,1.25754 3.9082,3.58984 0.7226,-2.36097 2.323,-3.54298 3.9043,-3.54297 1.1657,10e-6 2.3063,0.66594 3.0879,1.94922 0.7701,-0.86925 1.7576,-1.2943 2.7461,-1.25391 1.1889,0.0486 2.3708,0.77896 3.1777,2.20118 0.013,-0.17311 0.024,-0.34646 0.037,-0.51954 0.3041,-3.87698 2.2993,-5.78341 4.2676,-5.86328 2.2308,-0.0905 4.4267,2.16453 4.084,6.5586 -0.25,3.20418 -0.4143,6.41346 -0.5313,9.625 -0.013,0.32622 -0.023,0.65248 -0.033,0.97851 h 72.1914 c -0.01,-0.0752 -0.012,-0.14992 -0.016,-0.22656 -0.1304,-2.71036 -0.309,-5.42413 -0.289,-8.13867 0.031,-4.14804 2.1413,-6.22074 4.2363,-6.2207 2.0901,-10e-6 4.1631,2.06475 4.1426,6.19335 0.437,-3.57319 2.4152,-5.29543 4.3339,-5.27734 0.5563,0.005 1.1042,0.16257 1.6114,0.45703 0.8446,-1.53488 2.1034,-2.30465 3.3457,-2.3457 1.4666,-0.0484 2.8942,0.93559 3.6035,2.84961 0.8743,-1.32532 2.0869,-1.96463 3.2695,-1.93945 2.1618,0.046 4.2122,2.29507 3.8633,6.55859 -0.2204,2.6925 -0.3591,5.39066 -0.4687,8.08984 h 43.582 v -71.1914 z" /></clipPath><clipPath
       clipPathUnits="userSpaceOnUse"
       id="clipPath364"><path
         id="path365"
         style="fill:#ff0000;fill-opacity:1;fill-rule:nonzero;stroke:none"
         d="m 1745.4629,823.38867 v 83.09375 c 0.6954,0.0449 1.3899,0.0956 2.084,0.1582 1.836,0.2108 0.9476,0.10635 2.666,0.31641 3.7382,0.45699 5.5507,2.41973 5.666,4.33399 3.3642,0.93206 4.3666,3.66546 3.041,5.6914 7.7054,2.01553 5.6414,10.13981 -2.2754,8.06446 -0.9335,-0.24471 -1.8845,-0.31422 -2.8418,-0.42188 -1.9775,-0.24539 -3.9483,-0.32851 -5.9433,-0.25391 h -2.3965 v 8.6836 h 63.4453 V 823.38867 Z" /></clipPath><clipPath
       clipPathUnits="userSpaceOnUse"
       id="clipPath398"><path
         id="path399"
         style="fill:#ff0000;fill-opacity:1;fill-rule:nonzero;stroke:none"
         d="m 1520.3379,932.42578 v 74.11132 h 289.8144 v -74.11132 h -101.3515 c 0,3.2629 -0.073,6.52335 -0.1895,9.78516 -0.1863,5.23109 -3.571,6.99026 -5.9824,5.53125 -0.91,0.0794 -1.8306,-0.23416 -2.5918,-0.9336 -2.15,1.63172 -5.6266,0.37769 -6.6601,-4.60547 -0.1468,-0.70794 -0.2947,-1.41701 -0.4415,-2.125 -0.2057,-1.1562 -0.4159,-2.31141 -0.6289,-3.46679 0.075,0.95618 0.1297,1.914 0.2071,2.86914 0.071,0.87577 0.1399,1.75119 0.2109,2.62695 0.6466,8.03269 -7.2162,8.89561 -8.2773,1.35938 -2.2974,2.78502 -6.738,1.35696 -7.0235,-4.63282 -0.1018,-2.13712 -0.2025,-4.276 -0.3847,-6.4082 h -89.6875 c -0.262,3.61559 -0.355,7.24431 -0.4024,10.86719 0.024,1.20355 0.05,2.40583 0.074,3.60937 0.1687,8.29459 -8.2204,8.4608 -8.3789,0.16602 -0.015,-0.78845 -0.03,-1.57684 -0.045,-2.36524 -1.7453,4.53765 -7.0136,3.9247 -7.7285,-1.74609 -2.3953,1.46851 -5.8035,-0.30133 -6.0469,-5.51953 -0.078,-1.6704 -0.1324,-3.34106 -0.164,-5.01172 z" /></clipPath><clipPath
       clipPathUnits="userSpaceOnUse"
       id="clipPath401"><path
         id="path402"
         style="fill:#ff0000;fill-opacity:1;fill-rule:nonzero;stroke:none"
         d="m 1519.5645,932.08984 v 73.39646 h 110.2714 v -73.39646 h -42.4589 c -0.2813,3.72674 -0.379,7.46798 -0.4278,11.20313 0.024,1.20355 0.05,2.40583 0.074,3.60937 0.1687,8.29459 -8.2204,8.4608 -8.3789,0.16602 -0.015,-0.78845 -0.03,-1.57684 -0.045,-2.36524 -1.7453,4.53765 -7.0136,3.9247 -7.7285,-1.74609 -2.3953,1.46851 -5.8035,-0.30133 -6.0469,-5.51953 -0.083,-1.78232 -0.1397,-3.565 -0.1699,-5.34766 z" /></clipPath><clipPath
       clipPathUnits="userSpaceOnUse"
       id="clipPath415"><path
         id="path416"
         style="fill:#ff0000;fill-opacity:1;fill-rule:nonzero;stroke:none"
         d="m 1403.6387,938.35156 v 68.18554 h 65.1211 v -31.16015 c -2.4527,0.13385 -4.8986,0.34325 -7.3243,0.72852 -5.6896,0.90369 -8.2113,-2.7427 -6.4843,-5.51953 -0.9374,-1.87927 0.032,-4.41617 3.4336,-5.67774 -0.8771,-0.73242 -1.3234,-1.6902 -1.3184,-2.66601 -2.9545,-1.80092 -2.0785,-6.38678 3.709,-7.77735 2.6363,-0.6334 5.2961,-1.1289 7.9844,-1.4375 v -14.67578 z" /></clipPath></defs><g
     inkscape:label="Warstwa 1"
     inkscape:groupmode="layer"
     id="layer1"><rect
       style="fill:none;stroke:#000000;stroke-width:3.00828;stroke-dasharray:none"
       id="rect1"
       width="744.92279"
       height="68.732437"
       x="775.11523"
       y="800.00415"
       clip-path="url(#clipPath308)" /><rect
       style="fill:none;stroke:#000000;stroke-width:3;stroke-dasharray:none"
       id="rect2"
       width="35.555557"
       height="100.74074"
       x="837.9259"
       y="868.74072"
       clip-path="url(#clipPath85)" /><rect
       style="fill:none;stroke:#000000;stroke-width:3.00738;stroke-dasharray:none"
       id="rect3"
       width="648.08557"
       height="28.437063"
       x="872.29999"
       y="868.74438"
       clip-path="url(#clipPath311)" /><rect
       style="fill:none;stroke:#000000;stroke-width:3.03943;stroke-dasharray:none"
       id="rect4"
       width="62.081123"
       height="65.14576"
       x="1405.1584"
       y="939.87158"
       clip-path="url(#clipPath415)" /><rect
       style="fill:none;stroke:#000000;stroke-width:3.08686;stroke-dasharray:none"
       id="rect5"
       width="61.542774"
       height="42.723598"
       x="1405.6731"
       y="897.22864"
       clip-path="url(#clipPath75)" /><rect
       style="fill:none;stroke:#000000;stroke-width:3;stroke-dasharray:none"
       id="rect6"
       width="286.81482"
       height="71.111115"
       x="1521.8374"
       y="933.9259"
       clip-path="url(#clipPath398)" /><rect
       style="fill:none;stroke:#000000;stroke-width:3;stroke-dasharray:none"
       id="rect7"
       width="60.444443"
       height="106.66666"
       x="1746.963"
       y="824.88892"
       clip-path="url(#clipPath364)" /><rect
       style="fill:none;stroke:#000000;stroke-width:3.09388;stroke-dasharray:none"
       id="rect8"
       width="226.2765"
       height="68.096382"
       x="1520.6396"
       y="829.67657"
       clip-path="url(#clipPath354)" /><rect
       style="fill:none;stroke:#000000;stroke-width:2.9674;stroke-dasharray:none"
       id="rect9"
       width="53.667961"
       height="0.87065387"
       x="1469.0897"
       y="1003.9706" /><rect
       style="fill:none;stroke:#000000;stroke-width:3;stroke-dasharray:none"
       id="rect76"
       width="107.27072"
       height="70.396408"
       x="1521.0653"
       y="933.59045"
       clip-path="url(#clipPath401)" /><rect
       style="fill:none;stroke:#000000;stroke-width:3;stroke-dasharray:none"
       id="rect77"
       width="124.03177"
       height="67.882248"
       x="1520.2272"
       y="829.67194"
       clip-path="url(#clipPath338)" /><rect
       style="fill:none;stroke:#000000;stroke-width:3;stroke-dasharray:none"
       id="rect78"
       width="104.75656"
       height="68.720306"
       x="774.36047"
       y="799.50208"
       clip-path="url(#clipPath87)" /><rect
       style="fill:none;stroke:#000000;stroke-width:2.94186;stroke-dasharray:none"
       id="rect79"
       width="104.8147"
       height="67.102348"
       x="1414.6036"
       y="801.14917"
       clip-path="url(#clipPath314)" /><rect
       style="fill:none;stroke:#000000;stroke-width:3.04267;stroke-dasharray:none"
       id="rect80"
       width="112.25636"
       height="67.839577"
       x="1302.355"
       y="800.36145"
       clip-path="url(#clipPath266)" /><rect
       style="fill:none;stroke:#000000;stroke-width:3.02747;stroke-dasharray:none"
       id="rect80-4"
       width="109.75739"
       height="68.692825"
       x="1192.0765"
       y="800.67566"
       clip-path="url(#clipPath228)" /><rect
       style="fill:none;stroke:#000000;stroke-width:2.89062;stroke-dasharray:none"
       id="rect80-2"
       width="102.35178"
       height="67.153572"
       x="1088.4453"
       y="801.09308"
       clip-path="url(#clipPath180)" /><rect
       style="fill:none;stroke:#000000;stroke-width:2.81122;stroke-dasharray:none"
       id="rect81"
       width="104.94534"
       height="68.909088"
       x="879.02264"
       y="799.40765"
       clip-path="url(#clipPath104)" /><rect
       style="fill:none;stroke:#000000;stroke-width:2.78942;stroke-dasharray:none"
       id="rect81-4"
       width="103.29104"
       height="68.930893"
       x="984.55664"
       y="799.9859"
       clip-path="url(#clipPath142)" /></g></svg>
